<?xml version="1.0" standalone="no"?>
<!DOCTYPE svg PUBLIC "-//W3C//DTD SVG 20010904//EN"
 "http://www.w3.org/TR/2001/REC-SVG-20010904/DTD/svg10.dtd">
<svg version="1.0" xmlns="http://www.w3.org/2000/svg"
 width="1500.000000pt" height="1500.000000pt" viewBox="0 0 1500.000000 1500.000000"
 preserveAspectRatio="xMidYMid meet">
<metadata>
Created by potrace 1.11, written by Peter Selinger 2001-2013
</metadata>
<g transform="translate(0.000000,1500.000000) scale(0.100000,-0.100000)"
fill="#000000" stroke="none">
<path d="M8815 14915 c2 -62 0 -83 -9 -78 -7 4 -7 1 1 -9 7 -8 10 -18 6 -21
-3 -4 0 -13 6 -21 8 -10 9 -16 1 -21 -5 -3 -10 -13 -10 -21 0 -10 5 -12 13 -8
8 5 8 2 -2 -9 -11 -14 -11 -17 0 -17 8 0 6 -6 -7 -16 -10 -8 -14 -13 -8 -10 7
3 15 -1 18 -10 3 -9 2 -12 -5 -9 -11 7 -8 -32 4 -52 4 -6 2 -15 -4 -19 -8 -5
-9 -3 -4 6 6 9 4 11 -4 5 -9 -5 -9 -11 -3 -17 6 -6 8 -16 6 -23 -3 -7 0 -16 6
-20 8 -5 8 -11 -1 -21 -9 -11 -8 -18 2 -31 8 -9 9 -14 3 -10 -8 5 -11 -14 -8
-63 2 -52 -1 -68 -9 -63 -8 5 -8 2 0 -9 7 -8 10 -18 6 -21 -3 -4 0 -13 6 -21
8 -10 9 -16 1 -21 -5 -3 -10 -13 -10 -21 0 -10 5 -12 13 -8 8 5 8 2 -2 -9 -11
-14 -11 -17 0 -17 8 0 6 -6 -7 -16 -10 -8 -14 -13 -8 -10 7 3 15 -1 18 -10 3
-9 2 -12 -5 -9 -11 7 -8 -32 4 -52 4 -6 2 -15 -4 -19 -8 -5 -9 -3 -4 6 6 9 4
11 -4 5 -9 -5 -9 -11 -3 -17 6 -6 8 -16 6 -23 -3 -7 0 -16 6 -20 8 -5 8 -11
-1 -21 -9 -11 -8 -18 2 -31 8 -9 9 -14 3 -10 -8 5 -11 -14 -8 -63 2 -52 -1
-68 -9 -63 -8 5 -8 2 0 -9 7 -8 10 -18 6 -21 -3 -4 0 -13 6 -21 8 -10 9 -16 1
-21 -5 -3 -10 -13 -10 -21 0 -10 5 -12 13 -8 8 5 8 2 -2 -9 -11 -14 -11 -17 0
-17 8 0 6 -6 -7 -16 -10 -8 -14 -13 -8 -10 7 3 15 -1 18 -10 3 -9 2 -12 -5 -9
-11 7 -8 -32 4 -52 4 -6 2 -15 -4 -19 -8 -5 -9 -3 -4 6 6 9 4 11 -4 5 -9 -5
-9 -11 -3 -17 6 -6 8 -16 6 -23 -3 -7 0 -16 6 -20 8 -5 8 -11 -1 -21 -9 -11
-8 -18 2 -31 8 -9 9 -14 3 -10 -8 5 -11 -14 -8 -63 2 -52 -1 -68 -9 -63 -8 5
-8 2 0 -9 7 -8 10 -18 6 -21 -3 -4 0 -13 6 -21 8 -10 9 -16 1 -21 -5 -3 -10
-13 -10 -21 0 -10 5 -12 13 -8 8 5 8 2 -2 -9 -11 -14 -11 -17 0 -17 8 0 6 -6
-7 -16 -10 -8 -14 -13 -8 -10 7 3 15 -1 18 -10 3 -9 2 -12 -5 -9 -11 7 -8 -32
4 -52 4 -6 2 -15 -4 -19 -8 -5 -9 -3 -4 6 6 9 4 11 -4 5 -9 -5 -9 -11 -3 -17
6 -6 8 -16 6 -23 -3 -7 0 -16 6 -20 8 -5 8 -11 -1 -21 -9 -11 -8 -18 2 -31 8
-9 9 -14 3 -10 -8 5 -11 -14 -8 -63 2 -52 -1 -68 -9 -63 -8 5 -8 2 0 -9 7 -8
10 -18 6 -21 -3 -4 0 -13 6 -21 8 -10 9 -16 1 -21 -5 -3 -10 -13 -10 -21 0
-10 5 -12 13 -8 8 5 8 2 -2 -9 -11 -14 -11 -17 0 -17 8 0 6 -6 -7 -16 -10 -8
-14 -13 -8 -10 7 3 15 -1 18 -10 3 -9 2 -12 -5 -9 -11 7 -8 -32 4 -52 4 -6 2
-15 -4 -19 -8 -5 -9 -3 -4 6 6 9 4 11 -4 5 -9 -5 -9 -11 -3 -17 6 -6 8 -16 6
-23 -3 -7 0 -16 6 -20 8 -5 8 -11 -1 -21 -9 -11 -8 -18 2 -31 8 -9 9 -14 3
-11 -12 8 -13 -130 0 -151 6 -9 5 -12 -1 -8 -7 4 -9 -17 -7 -63 2 -52 -1 -68
-9 -63 -8 5 -8 2 0 -9 7 -8 10 -18 6 -21 -3 -4 0 -13 6 -21 8 -10 9 -16 1 -21
-5 -3 -10 -13 -10 -21 0 -10 5 -12 13 -8 8 5 8 2 -2 -9 -11 -14 -11 -17 0 -17
8 0 6 -6 -7 -16 -10 -8 -14 -13 -8 -10 7 3 15 -1 18 -10 3 -9 2 -12 -5 -9 -11
7 -8 -32 4 -52 4 -6 2 -15 -4 -19 -8 -5 -9 -3 -4 6 6 9 4 11 -4 5 -9 -5 -9
-11 -3 -17 6 -6 8 -16 6 -23 -3 -7 0 -16 6 -20 8 -5 8 -11 -1 -21 -9 -11 -8
-18 2 -31 8 -9 9 -14 3 -10 -8 5 -11 -14 -8 -63 2 -52 -1 -68 -9 -63 -8 5 -8
2 0 -9 7 -8 10 -18 6 -21 -3 -4 0 -13 6 -21 8 -10 9 -16 1 -21 -5 -3 -10 -13
-10 -21 0 -10 5 -12 13 -8 8 5 8 2 -2 -9 -11 -14 -11 -17 0 -17 8 0 6 -6 -7
-16 -10 -8 -14 -13 -8 -10 7 3 15 -1 18 -10 3 -9 2 -12 -5 -9 -11 7 -8 -32 4
-52 4 -6 2 -15 -4 -19 -8 -5 -9 -3 -4 6 6 9 4 11 -4 5 -9 -5 -9 -11 -3 -17 6
-6 8 -16 6 -23 -3 -7 0 -16 6 -20 8 -5 8 -11 -1 -21 -9 -11 -8 -18 2 -31 8 -9
9 -14 3 -10 -8 5 -11 -14 -8 -63 2 -52 -1 -68 -9 -63 -8 5 -8 2 0 -9 7 -8 10
-18 6 -21 -3 -4 0 -13 6 -21 8 -10 9 -16 1 -21 -5 -3 -10 -13 -10 -21 0 -10 5
-12 13 -8 8 5 8 2 -2 -9 -11 -14 -11 -17 0 -17 8 0 6 -6 -7 -16 -10 -8 -14
-13 -8 -10 7 3 15 -1 18 -10 3 -9 2 -12 -5 -9 -11 7 -8 -32 4 -52 4 -6 2 -15
-4 -19 -8 -5 -9 -3 -4 6 6 9 4 11 -4 5 -9 -5 -9 -11 -3 -17 6 -6 8 -16 6 -23
-3 -7 0 -16 6 -20 8 -5 8 -11 -1 -21 -9 -11 -8 -18 2 -31 8 -9 9 -14 3 -10 -8
5 -11 -14 -8 -63 2 -52 -1 -68 -9 -63 -8 5 -8 2 0 -9 7 -8 10 -18 6 -21 -3 -4
0 -13 6 -21 8 -10 9 -16 1 -21 -5 -3 -10 -13 -10 -21 0 -10 5 -12 13 -8 8 5 8
2 -2 -9 -11 -14 -11 -17 0 -17 8 0 6 -6 -7 -16 -10 -8 -14 -13 -8 -10 7 3 15
-1 18 -10 3 -9 2 -12 -5 -9 -11 7 -8 -32 4 -52 4 -6 2 -15 -4 -19 -8 -5 -9 -3
-4 6 6 9 4 11 -4 5 -9 -5 -9 -11 -3 -17 6 -6 8 -16 6 -23 -3 -7 0 -16 6 -20 8
-5 8 -11 -1 -21 -9 -11 -8 -18 2 -31 8 -9 9 -14 3 -10 -8 5 -11 -14 -8 -63 2
-52 -1 -68 -9 -63 -8 5 -8 2 0 -9 7 -8 10 -18 6 -21 -3 -4 0 -13 6 -21 8 -10
9 -16 1 -21 -5 -3 -10 -13 -10 -21 0 -10 5 -12 13 -8 8 5 8 2 -2 -9 -11 -14
-11 -17 0 -17 8 0 6 -6 -7 -16 -10 -8 -14 -13 -8 -10 7 3 15 -1 18 -10 3 -9 2
-12 -5 -9 -11 7 -8 -32 4 -52 4 -6 2 -15 -4 -19 -8 -5 -9 -3 -4 6 6 9 4 11 -4
5 -9 -5 -9 -11 -3 -17 6 -6 8 -16 6 -23 -3 -7 0 -16 6 -20 8 -5 8 -11 -1 -21
-9 -11 -8 -18 2 -31 8 -9 9 -14 3 -11 -12 8 -13 -130 0 -151 6 -9 5 -12 -1 -8
-7 4 -9 -17 -7 -63 2 -52 -1 -68 -9 -63 -8 5 -8 2 0 -9 7 -8 10 -18 6 -21 -3
-4 0 -13 6 -21 8 -10 9 -16 1 -21 -5 -3 -10 -13 -10 -21 0 -10 5 -12 13 -8 8
5 8 2 -2 -9 -11 -14 -11 -17 0 -17 8 0 6 -6 -7 -16 -10 -8 -14 -13 -8 -10 7 3
15 -1 18 -10 3 -9 2 -12 -5 -9 -11 7 -8 -32 4 -52 4 -6 2 -15 -4 -19 -8 -5 -9
-3 -4 6 5 8 4 11 -3 7 -5 -4 -8 -16 -5 -27 3 -11 9 -18 12 -15 4 2 8 -2 8 -9
0 -8 -7 -12 -15 -8 -9 3 -13 1 -9 -4 3 -6 7 -35 8 -65 1 -30 5 -58 8 -64 3 -5
6 -23 6 -40 0 -18 5 -29 12 -28 7 2 10 -6 8 -17 -2 -11 2 -25 8 -32 7 -7 13
-22 15 -33 2 -11 11 -26 20 -32 9 -7 12 -13 8 -13 -5 0 6 -13 23 -29 17 -16
31 -34 31 -41 0 -6 5 -8 10 -5 6 3 10 -1 10 -9 0 -9 6 -15 13 -13 6 1 11 -3
10 -10 -2 -7 3 -10 11 -7 7 3 16 -2 19 -10 4 -9 16 -16 27 -16 14 0 19 -4 14
-12 -5 -7 -2 -9 9 -5 9 3 17 2 19 -3 2 -6 15 -11 31 -12 15 -1 27 -6 27 -11 0
-4 5 -5 10 -2 6 3 10 2 10 -4 0 -5 9 -8 20 -6 11 2 22 0 25 -6 4 -5 13 -6 23
0 10 5 24 6 33 1 8 -5 21 -5 29 0 7 4 24 4 37 -1 13 -5 23 -5 23 0 0 5 16 5
35 1 20 -4 38 -4 41 1 3 5 11 6 17 2 17 -11 29 -11 50 -1 11 6 17 5 17 -2 0
-7 6 -8 19 -1 10 6 21 8 23 5 8 -8 398 -10 398 -2 0 4 11 4 23 -1 13 -5 30 -6
37 -1 7 5 24 4 37 -1 13 -5 23 -5 23 0 0 5 16 5 35 1 20 -4 38 -4 41 1 3 5 11
6 17 2 17 -11 29 -11 50 -1 11 6 17 5 17 -2 0 -7 6 -8 17 -1 10 5 26 5 40 0
13 -5 23 -5 23 0 0 5 16 5 35 1 20 -4 38 -4 41 1 3 5 11 6 17 2 17 -11 29 -11
50 -1 11 6 17 5 17 -2 0 -7 6 -8 19 -1 10 6 21 8 23 5 8 -8 398 -10 398 -2 0
4 11 4 23 -1 13 -5 30 -6 37 -1 7 5 24 4 37 -1 13 -5 23 -5 23 0 0 5 16 5 35
1 20 -4 38 -4 41 1 3 5 11 6 17 2 17 -11 29 -11 50 -1 11 6 17 5 17 -2 0 -7 6
-8 17 -1 10 5 26 5 40 0 13 -5 23 -5 23 0 0 5 16 5 35 1 20 -4 38 -4 41 1 3 5
11 6 17 2 17 -11 29 -11 50 -1 11 6 17 5 17 -2 0 -7 6 -8 19 -1 10 6 20 8 22
6 11 -10 59 -13 59 -3 0 7 4 7 13 0 7 -6 18 -7 27 -2 7 4 24 4 37 -1 14 -5 23
-5 23 1 0 6 9 6 23 1 13 -5 30 -6 37 -1 7 5 24 4 37 -1 13 -5 23 -5 23 0 0 5
15 5 34 1 19 -4 39 -4 46 0 7 4 27 4 46 0 20 -5 34 -4 34 2 0 5 6 6 13 1 17
-11 29 -11 50 -1 11 6 17 5 17 -2 0 -7 6 -8 17 -1 10 5 26 5 40 0 14 -5 23 -5
23 1 0 5 6 7 13 5 27 -10 87 -12 87 -2 0 6 5 5 13 -1 7 -6 18 -7 27 -2 7 4 24
4 37 -1 14 -5 23 -5 23 1 0 6 9 6 23 1 13 -5 30 -6 37 -1 7 5 24 4 37 -1 13
-5 23 -5 23 0 0 5 15 5 34 1 19 -4 39 -4 46 0 7 4 27 4 46 0 20 -5 34 -4 34 2
0 5 6 6 13 1 17 -11 29 -11 50 -1 11 6 17 5 17 -2 0 -7 6 -8 17 -1 10 5 26 5
40 0 14 -5 23 -5 23 1 0 5 6 7 13 5 22 -9 107 -11 107 -3 0 4 11 4 23 -1 13
-5 30 -6 37 -1 7 5 24 4 37 -1 13 -5 23 -5 23 0 0 5 16 5 35 1 20 -4 38 -4 41
1 3 5 11 6 17 2 17 -11 29 -11 50 -1 11 6 17 5 17 -2 0 -7 6 -8 17 -1 10 5 26
5 40 0 13 -5 23 -5 23 0 0 5 16 5 35 1 21 -5 38 -4 41 2 4 5 10 5 17 -1 19
-15 21 -15 45 -2 15 8 22 8 22 1 0 -7 6 -8 19 -1 10 6 21 8 23 5 8 -8 398 -10
398 -2 0 4 11 4 23 -1 13 -5 30 -6 37 -1 7 5 24 4 37 -1 13 -5 23 -5 23 0 0 5
16 5 35 1 21 -5 38 -4 41 2 3 5 12 4 21 -4 9 -7 17 -13 17 -12 16 13 46 22 46
14 0 -7 6 -8 17 -1 10 5 26 5 40 0 13 -5 23 -5 23 0 0 5 16 5 35 1 21 -5 38
-4 41 2 3 5 12 4 21 -4 9 -7 19 -11 22 -10 32 19 41 22 41 12 0 -7 6 -8 19 -1
10 6 21 8 23 5 8 -8 398 -10 398 -2 0 4 11 4 23 -1 13 -5 30 -6 37 -1 7 5 24
4 37 -1 30 -11 36 -11 29 -1 -2 4 15 7 40 7 24 -1 44 2 44 7 0 4 6 7 13 6 9
-2 13 94 15 449 2 444 2 452 -18 458 -11 3 -24 4 -29 0 -5 -3 -13 -1 -16 5 -4
6 -16 8 -27 4 -15 -4 -18 -3 -13 6 6 9 3 9 -14 1 -16 -9 -21 -9 -21 1 0 9 -3
9 -8 2 -8 -12 -56 -13 -67 -2 -4 4 -16 3 -26 -3 -14 -7 -19 -6 -19 3 0 8 -3 9
-8 3 -9 -13 -84 -16 -76 -3 4 6 -3 5 -15 -1 -16 -9 -21 -9 -21 1 0 9 -3 9 -8
2 -8 -12 -56 -13 -67 -2 -4 4 -16 3 -26 -3 -14 -7 -19 -6 -19 3 0 8 -3 9 -8 3
-9 -13 -84 -16 -76 -3 4 6 -3 5 -15 -1 -16 -9 -21 -9 -21 1 0 9 -3 9 -8 2 -8
-12 -56 -13 -67 -2 -4 4 -16 3 -26 -3 -14 -7 -19 -6 -19 3 0 8 -3 9 -8 3 -9
-13 -84 -16 -76 -3 4 6 -3 5 -15 -1 -16 -9 -21 -9 -21 1 0 9 -3 9 -8 2 -8 -12
-56 -13 -67 -2 -4 4 -16 3 -26 -3 -14 -7 -19 -6 -19 3 0 8 -3 9 -8 3 -9 -13
-84 -16 -76 -3 4 6 -3 5 -15 -1 -16 -9 -21 -9 -21 1 0 9 -3 9 -8 2 -8 -12 -56
-13 -67 -2 -4 4 -16 3 -26 -3 -14 -7 -19 -6 -19 3 0 8 -3 9 -8 3 -9 -13 -84
-16 -76 -3 4 6 -3 5 -15 -1 -16 -9 -21 -9 -21 1 0 9 -3 9 -8 2 -8 -12 -56 -13
-67 -2 -4 4 -16 3 -26 -3 -14 -7 -19 -6 -19 3 0 8 -3 9 -8 3 -9 -13 -84 -16
-76 -3 4 6 -3 5 -15 -1 -16 -9 -21 -9 -21 1 0 9 -3 9 -8 2 -8 -12 -56 -13 -67
-2 -4 4 -16 3 -26 -3 -14 -7 -19 -6 -19 3 0 8 -3 9 -8 3 -9 -13 -84 -16 -76
-3 4 6 -3 5 -15 -1 -16 -9 -21 -9 -21 1 0 9 -3 9 -8 2 -8 -12 -56 -13 -67 -2
-4 4 -16 3 -26 -3 -14 -7 -19 -6 -19 3 0 8 -3 9 -8 3 -9 -13 -84 -16 -76 -3 4
6 -3 5 -15 -1 -16 -9 -21 -9 -21 1 0 9 -3 9 -8 2 -8 -12 -56 -13 -67 -2 -4 4
-16 3 -26 -3 -14 -7 -19 -6 -19 3 0 8 -3 9 -8 3 -9 -13 -84 -16 -76 -3 4 6 -3
5 -15 -1 -16 -9 -21 -9 -21 1 0 9 -3 9 -8 2 -8 -12 -56 -13 -67 -2 -4 4 -16 3
-26 -3 -14 -7 -19 -6 -19 3 0 8 -3 9 -8 3 -9 -13 -84 -16 -76 -3 4 6 -3 5 -15
-1 -16 -9 -21 -9 -21 1 0 9 -3 9 -8 2 -8 -12 -56 -13 -67 -2 -4 4 -16 3 -26
-3 -14 -7 -19 -6 -19 3 0 8 -3 9 -8 3 -9 -13 -84 -16 -76 -3 4 6 -3 5 -15 -1
-16 -9 -21 -9 -21 1 0 9 -3 9 -8 2 -8 -12 -56 -13 -67 -2 -4 4 -16 3 -26 -3
-14 -7 -19 -6 -19 3 0 8 -3 9 -8 3 -9 -13 -84 -16 -76 -3 4 6 -3 5 -15 -1 -16
-9 -21 -9 -21 1 0 9 -3 9 -8 2 -8 -12 -56 -13 -67 -2 -4 4 -16 3 -26 -3 -14
-7 -19 -6 -19 3 0 8 -3 9 -8 3 -9 -13 -84 -16 -76 -3 4 6 -3 5 -15 -1 -16 -9
-21 -9 -21 1 0 9 -3 9 -8 2 -8 -12 -56 -13 -67 -2 -4 4 -16 3 -26 -3 -14 -7
-19 -6 -19 3 0 8 -3 9 -8 3 -9 -13 -84 -16 -76 -3 4 6 -3 5 -15 -1 -16 -9 -21
-9 -21 1 0 9 -3 9 -8 2 -8 -12 -56 -13 -67 -2 -4 4 -16 3 -26 -3 -14 -7 -19
-6 -19 3 0 8 -3 9 -8 3 -9 -13 -84 -16 -76 -3 4 6 -3 5 -15 -1 -16 -9 -21 -9
-21 1 0 9 -3 9 -8 2 -8 -12 -56 -13 -67 -2 -4 4 -16 3 -26 -3 -14 -7 -19 -6
-19 3 0 8 -3 9 -8 3 -9 -13 -84 -16 -76 -3 4 6 -3 5 -15 -1 -16 -9 -21 -9 -21
1 0 9 -3 9 -8 2 -8 -12 -56 -13 -67 -2 -4 4 -16 3 -26 -3 -14 -7 -19 -6 -19 3
0 8 -3 9 -8 3 -9 -13 -84 -16 -76 -3 4 6 -3 5 -15 -1 -16 -9 -21 -9 -21 1 0 9
-3 9 -8 2 -8 -12 -56 -13 -67 -2 -4 4 -16 3 -26 -3 -14 -7 -19 -6 -19 3 0 8
-3 9 -8 3 -9 -13 -84 -16 -76 -3 4 6 -3 5 -15 -1 -16 -9 -21 -9 -21 1 0 9 -3
9 -8 2 -8 -12 -56 -13 -68 -2 -4 4 -13 3 -19 -2 -9 -7 -14 -7 -17 2 -4 14 408
429 417 420 3 -3 5 0 5 6 0 14 307 321 314 314 4 -3 6 1 6 10 0 8 11 21 25 28
14 7 23 15 21 17 -5 6 283 293 294 293 5 0 9 4 7 8 -1 4 39 49 90 99 50 50 88
95 85 99 -4 4 -2 4 4 1 6 -4 31 16 55 43 23 27 47 46 51 44 5 -3 7 -1 6 4 -2
5 20 31 47 57 28 27 49 52 48 57 -2 4 1 7 5 5 4 -1 20 10 34 25 14 15 28 25
31 21 4 -3 7 -2 7 4 0 6 37 49 83 94 45 46 81 87 80 91 -2 5 1 7 5 5 4 -1 78
68 164 154 86 87 160 154 163 150 4 -3 5 -1 3 4 -4 12 38 56 46 48 3 -4 6 -2
6 3 0 13 86 104 99 104 6 0 11 7 11 16 0 9 5 12 12 8 8 -5 9 -2 5 9 -3 9 -2
16 3 14 5 -1 29 19 53 45 25 26 48 44 51 41 3 -4 6 -1 6 5 0 14 259 272 273
272 6 0 8 3 5 6 -8 7 75 92 85 87 4 -2 7 0 7 5 0 13 238 252 250 252 6 0 10 7
10 15 0 14 12 20 33 16 5 -1 6 3 2 8 -6 10 131 151 147 151 4 0 8 5 8 11 0 15
47 59 54 51 3 -3 6 0 6 6 0 7 57 68 128 137 70 68 131 129 136 134 5 4 24 25
43 45 19 20 40 36 46 36 6 0 8 3 5 6 -8 7 115 131 125 127 4 -2 7 0 7 6 0 14
67 81 74 74 3 -4 6 -2 6 4 0 12 422 438 448 452 9 5 88 81 174 168 l158 158 0
293 0 292 -343 0 -343 0 -219 -216 c-121 -119 -434 -426 -695 -684 -261 -257
-554 -545 -650 -640 -96 -94 -277 -273 -403 -397 -125 -124 -233 -223 -240
-221 -14 5 -49 -27 -39 -36 3 -3 1 -6 -5 -6 -14 0 -112 -97 -105 -104 3 -3 0
-6 -5 -6 -14 0 -242 -228 -235 -235 3 -3 1 -5 -5 -5 -14 0 -293 -279 -293
-293 0 -6 -3 -8 -6 -5 -7 8 -74 -59 -74 -74 0 -6 -2 -9 -5 -6 -8 7 -133 -115
-128 -124 2 -5 -1 -8 -6 -8 -14 0 -101 -90 -101 -103 0 -6 -3 -8 -6 -4 -8 7
-64 -50 -64 -65 0 -6 -3 -9 -6 -6 -7 7 -84 -70 -84 -84 0 -5 -3 -8 -7 -5 -10
4 -172 -160 -165 -168 3 -3 0 -5 -6 -5 -6 0 -82 -72 -170 -160 -88 -87 -163
-156 -166 -152 -4 3 -4 -1 0 -11 4 -12 1 -17 -10 -17 -9 0 -16 -6 -16 -14 0
-7 -9 -16 -20 -19 -11 -3 -20 -13 -20 -22 0 -9 -4 -13 -10 -10 -5 3 -15 -5
-21 -19 -7 -14 -16 -23 -20 -20 -5 3 -9 0 -9 -6 0 -6 -5 -8 -10 -5 -6 4 -10 3
-9 -2 3 -16 -1 -36 -6 -31 -7 7 -175 -161 -175 -174 0 -6 -3 -9 -6 -6 -6 7
-254 -241 -254 -254 0 -5 -4 -6 -10 -3 -5 3 -10 1 -10 -5 0 -6 -5 -8 -12 -4
-6 4 -8 3 -4 -4 7 -12 -31 -52 -51 -52 -11 0 -11 4 -2 21 6 12 7 19 1 16 -5
-4 -9 10 -8 33 1 22 6 40 11 40 7 0 7 3 0 8 -12 9 -14 142 -2 142 4 0 5 5 1
11 -11 18 -10 138 1 131 5 -3 3 3 -5 13 -11 14 -12 19 -2 22 6 3 9 10 5 16
-11 18 -10 57 2 57 7 0 7 3 0 8 -14 9 -13 65 0 74 7 5 6 8 0 8 -14 0 -13 70 0
70 6 0 6 3 0 8 -14 9 -13 65 0 74 7 5 7 8 0 8 -6 0 -10 30 -10 70 0 39 4 70 8
70 5 0 5 5 1 11 -11 18 -10 138 1 131 5 -3 3 3 -5 13 -11 14 -12 19 -2 22 6 3
9 10 5 16 -11 18 -10 57 2 57 7 0 7 3 0 8 -14 9 -13 65 0 74 7 5 6 8 0 8 -14
0 -13 70 0 70 6 0 6 3 0 8 -14 9 -13 65 0 74 7 5 7 8 0 8 -6 0 -10 30 -10 70
0 39 4 70 8 70 5 0 5 5 1 11 -11 18 -10 138 1 131 5 -3 3 3 -5 13 -11 14 -12
19 -2 22 6 3 9 10 5 16 -11 18 -10 57 2 57 7 0 7 3 0 8 -14 9 -13 65 0 74 7 5
6 8 0 8 -14 0 -13 70 0 70 6 0 6 3 0 8 -14 9 -13 65 0 74 7 5 7 8 0 8 -6 0
-10 30 -10 70 0 39 4 70 8 70 5 0 5 5 1 11 -11 18 -10 138 1 131 5 -3 3 3 -5
13 -11 14 -12 19 -2 22 6 3 9 10 5 16 -11 18 -10 57 2 57 7 0 7 3 0 8 -14 9
-13 65 0 74 7 5 6 8 0 8 -14 0 -13 70 0 70 6 0 6 3 0 8 -14 9 -13 65 0 74 7 5
7 8 0 8 -6 0 -10 30 -10 70 0 39 4 70 8 70 5 0 5 5 1 11 -11 18 -10 138 1 131
5 -3 3 3 -5 13 -11 14 -12 19 -2 22 6 3 9 10 5 16 -11 18 -10 57 2 57 7 0 7 3
0 8 -14 9 -13 65 0 74 7 5 6 8 0 8 -14 0 -13 70 0 70 6 0 6 3 0 8 -14 9 -13
65 0 74 7 5 7 8 0 8 -6 0 -10 30 -10 70 0 39 4 70 8 70 5 0 5 5 1 11 -11 18
-10 138 1 131 5 -3 3 3 -5 13 -11 14 -12 19 -2 22 6 3 9 10 5 16 -11 18 -10
57 2 57 7 0 7 3 0 8 -14 9 -13 65 0 74 7 5 6 8 0 8 -14 0 -13 70 0 70 6 0 6 3
0 8 -14 9 -13 65 0 74 7 5 7 8 0 8 -6 0 -10 30 -10 70 0 39 4 70 8 70 5 0 5 5
1 11 -11 18 -10 138 1 131 5 -3 3 3 -5 13 -11 14 -12 19 -2 22 6 3 9 10 5 15
-3 6 -7 52 -7 102 l-1 91 -466 3 -466 2 2 -85z"/>
<path d="M3549 14515 c-2 -27 -9 -49 -17 -54 -5 -3 -8 -14 -6 -23 1 -10 -2
-18 -7 -18 -6 0 -7 -4 -4 -10 3 -5 2 -10 -3 -10 -5 0 -9 -7 -10 -15 -1 -8 -3
-22 -4 -30 -1 -8 -5 -15 -9 -15 -5 0 -6 -7 -3 -15 4 -8 2 -15 -4 -15 -5 0 -15
-22 -22 -50 -7 -27 -16 -50 -22 -50 -5 0 -7 -4 -4 -9 3 -4 -3 -26 -13 -47 -11
-21 -17 -42 -14 -46 2 -5 -1 -8 -8 -8 -7 0 -10 -3 -6 -6 3 -4 0 -21 -8 -39 -7
-19 -11 -36 -7 -39 3 -3 0 -6 -7 -6 -7 0 -9 -4 -6 -10 3 -5 2 -10 -3 -10 -6 0
-9 -15 -8 -34 1 -23 -2 -32 -9 -26 -7 6 -12 3 -13 -8 -6 -50 -8 -58 -16 -64
-5 -3 -10 -17 -11 -30 -1 -12 -7 -22 -12 -21 -6 1 -9 -9 -7 -22 1 -14 -2 -25
-7 -25 -6 0 -7 -4 -4 -10 3 -5 2 -10 -2 -10 -5 0 -10 -12 -11 -27 -1 -16 -10
-34 -19 -40 -11 -9 -13 -13 -4 -13 10 0 11 -3 2 -13 -6 -8 -8 -17 -4 -20 3 -4
1 -7 -6 -7 -8 0 -11 -7 -7 -15 3 -8 1 -15 -4 -15 -6 0 -10 -9 -10 -21 0 -11
-4 -18 -8 -15 -5 3 -8 -8 -7 -24 1 -21 -3 -30 -14 -30 -14 0 -14 -2 -1 -10 11
-7 11 -10 2 -10 -7 0 -10 -4 -7 -10 3 -5 0 -10 -7 -10 -9 0 -9 -3 2 -10 13 -8
13 -10 -2 -10 -12 0 -15 -8 -14 -29 1 -16 -3 -29 -8 -28 -6 1 -10 -6 -8 -15 2
-10 -2 -18 -8 -18 -6 0 -9 -3 -7 -8 3 -4 -3 -25 -14 -46 -10 -21 -16 -43 -13
-47 3 -5 1 -9 -5 -9 -5 0 -8 -9 -6 -20 2 -11 -3 -24 -13 -30 -14 -8 -14 -9 -2
-10 9 0 11 -3 5 -8 -17 -12 -41 -47 -27 -38 6 4 12 2 12 -3 0 -6 -5 -11 -11
-11 -5 0 -7 -4 -4 -10 3 -5 1 -10 -4 -10 -6 0 -10 -3 -9 -7 4 -14 -35 -118
-46 -125 -7 -5 -7 -8 2 -8 10 0 9 -4 -3 -16 -9 -9 -14 -23 -11 -30 3 -8 1 -14
-5 -14 -6 0 -7 -4 -4 -10 3 -5 2 -10 -4 -10 -5 0 -8 -11 -7 -25 2 -13 -2 -23
-8 -22 -6 1 -10 -4 -8 -11 1 -7 -3 -23 -10 -35 -13 -24 -15 -29 -17 -53 -1 -9
-6 -12 -13 -8 -9 5 -9 3 1 -9 11 -14 11 -18 -2 -23 -9 -3 -13 -12 -10 -21 4
-11 2 -14 -5 -9 -8 5 -10 2 -6 -8 4 -10 1 -16 -7 -16 -11 0 -11 -3 1 -10 10
-6 11 -10 3 -10 -7 0 -13 -9 -13 -21 0 -11 -4 -18 -8 -15 -4 2 -8 -8 -7 -22 0
-17 -5 -26 -13 -24 -8 1 -11 -2 -7 -8 4 -6 1 -17 -5 -25 -9 -10 -9 -15 -1 -15
6 0 2 -14 -9 -32 -10 -17 -17 -35 -14 -40 3 -4 1 -8 -4 -8 -5 0 -9 -6 -10 -12
-6 -47 -10 -60 -20 -70 -7 -7 -12 -20 -12 -29 0 -10 -5 -21 -11 -24 -6 -4 -8
-13 -5 -20 2 -7 0 -17 -5 -22 -5 -5 -12 -20 -14 -34 -3 -13 -9 -25 -14 -27 -6
-2 -7 -10 -4 -18 3 -8 -1 -14 -8 -14 -11 0 -11 -3 1 -10 11 -7 11 -10 2 -10
-7 0 -10 -4 -7 -10 3 -5 1 -10 -5 -10 -7 0 -10 -7 -6 -15 3 -8 1 -15 -5 -15
-6 0 -7 -4 -4 -10 3 -5 1 -10 -5 -10 -7 0 -10 -7 -6 -15 3 -8 0 -15 -6 -15 -6
0 -8 -3 -5 -7 4 -3 2 -11 -3 -18 -8 -10 -17 -40 -19 -68 -1 -5 -5 -5 -11 -2
-6 3 -7 -1 -4 -10 4 -8 1 -21 -5 -29 -6 -7 -8 -16 -4 -19 3 -4 1 -7 -5 -7 -6
0 -9 -9 -7 -20 2 -12 -4 -24 -16 -31 -15 -8 -18 -14 -9 -24 8 -9 7 -16 -3 -27
-8 -7 -13 -21 -11 -31 1 -9 -2 -17 -7 -17 -5 0 -9 -9 -9 -21 0 -13 -4 -18 -12
-13 -7 4 -8 3 -4 -5 9 -14 -2 -53 -13 -46 -5 2 -7 -7 -5 -20 1 -14 -1 -25 -5
-25 -4 0 -8 -6 -9 -12 -5 -44 -15 -77 -22 -73 -4 3 -10 -4 -13 -15 -3 -11 0
-20 6 -20 7 0 5 -5 -3 -10 -8 -5 -15 -13 -16 -17 -5 -38 -18 -73 -27 -73 -6 0
-8 -3 -5 -6 4 -3 0 -20 -7 -39 -8 -18 -11 -35 -8 -39 4 -3 1 -6 -6 -6 -7 0
-10 -4 -7 -9 3 -5 -1 -11 -9 -15 -8 -3 -12 -11 -10 -19 3 -7 -2 -31 -12 -53
-9 -21 -16 -45 -14 -53 1 -8 -2 -10 -10 -5 -8 4 -10 3 -5 -5 4 -6 2 -19 -6
-28 -11 -14 -11 -16 2 -9 11 6 11 4 -1 -6 -9 -7 -15 -21 -13 -31 1 -10 -4 -21
-12 -24 -9 -3 -13 -12 -9 -21 3 -8 0 -19 -6 -23 -6 -4 -11 -18 -11 -33 0 -14
-5 -26 -10 -26 -6 0 -7 -7 -4 -16 3 -9 2 -12 -4 -9 -7 4 -9 -3 -6 -19 3 -15 0
-25 -6 -23 -6 1 -12 -9 -14 -22 -3 -14 -10 -31 -17 -40 -10 -12 -9 -13 1 -7 7
4 3 -9 -8 -29 -12 -21 -15 -34 -8 -30 7 4 6 1 -3 -7 -9 -7 -14 -19 -12 -25 3
-7 0 -13 -7 -13 -6 0 -9 -4 -5 -9 3 -5 1 -12 -4 -16 -6 -3 -8 -12 -5 -19 3 -7
-1 -20 -8 -27 -14 -16 -21 -34 -22 -61 0 -10 -4 -18 -8 -18 -4 0 -8 -9 -8 -19
0 -11 -5 -23 -10 -26 -6 -4 -8 -10 -5 -15 3 -4 -2 -13 -10 -20 -7 -6 -11 -18
-8 -26 3 -8 -3 -24 -13 -36 -11 -12 -13 -18 -6 -14 6 4 12 2 12 -3 0 -6 -4
-11 -10 -11 -5 0 -10 -7 -10 -15 0 -8 -6 -15 -12 -15 -9 0 -8 -4 2 -10 11 -7
11 -10 2 -10 -7 0 -10 -4 -7 -10 3 -5 1 -10 -4 -10 -6 0 -10 -3 -10 -7 4 -22
-2 -44 -10 -39 -4 3 -8 -5 -7 -17 1 -12 -5 -28 -14 -35 -8 -8 -9 -10 -2 -7 11
6 11 3 3 -14 -6 -12 -16 -30 -21 -41 -6 -12 -8 -25 -5 -30 4 -6 1 -10 -5 -10
-6 0 -9 -4 -5 -9 3 -5 -1 -16 -9 -24 -8 -8 -13 -17 -10 -19 2 -3 -4 -26 -15
-52 -11 -25 -22 -50 -23 -54 -2 -4 -7 -6 -12 -4 -5 2 -4 -3 2 -11 10 -11 8
-20 -8 -40 -11 -14 -17 -32 -14 -41 4 -9 -1 -25 -10 -35 -9 -10 -13 -21 -9
-24 3 -4 1 -7 -5 -7 -6 0 -9 -9 -7 -20 2 -11 -1 -20 -6 -20 -6 0 -9 -6 -7 -12
3 -7 -1 -18 -8 -25 -7 -7 -10 -22 -7 -35 5 -16 3 -20 -8 -16 -11 4 -14 -2 -13
-21 0 -14 -5 -35 -13 -47 -7 -11 -10 -24 -6 -27 3 -4 1 -7 -5 -7 -7 0 -11 -3
-11 -7 4 -22 -2 -33 -13 -27 -9 5 -9 2 1 -9 9 -12 10 -17 2 -17 -7 0 -9 -5 -6
-10 3 -6 0 -13 -9 -16 -8 -3 -12 -12 -9 -20 3 -8 0 -21 -7 -29 -6 -8 -9 -19
-5 -25 3 -5 1 -10 -5 -10 -6 0 -8 -4 -5 -10 3 -5 1 -10 -4 -10 -6 0 -10 -3
-10 -7 4 -19 -15 -73 -24 -73 -6 0 -8 -3 -4 -6 3 -4 -1 -21 -10 -38 -13 -25
-13 -29 -2 -21 8 6 8 3 -1 -5 -9 -9 -15 -21 -12 -28 2 -6 -1 -12 -8 -12 -6 0
-9 -4 -6 -8 2 -4 1 -14 -4 -22 -5 -9 -5 -19 1 -26 7 -8 5 -11 -8 -10 -11 1
-17 -7 -18 -24 0 -14 -6 -35 -13 -47 -7 -13 -10 -23 -6 -23 3 0 1 -6 -5 -13
-6 -8 -8 -17 -4 -20 3 -4 1 -7 -5 -7 -7 0 -12 -8 -12 -18 0 -10 -6 -24 -12
-31 -9 -10 -9 -12 -1 -7 14 8 -16 -56 -31 -66 -7 -5 -6 -8 4 -8 13 0 13 -1 0
-10 -8 -5 -11 -10 -6 -10 5 0 3 -6 -3 -13 -6 -8 -8 -17 -4 -20 3 -4 1 -7 -6
-7 -7 0 -9 -5 -6 -10 4 -6 2 -16 -3 -23 -6 -7 -12 -21 -14 -32 -1 -11 -7 -23
-11 -26 -4 -3 -9 -17 -11 -30 -1 -13 -8 -34 -15 -46 -6 -13 -8 -23 -4 -23 4 0
2 -4 -5 -9 -10 -6 -9 -11 4 -22 16 -12 17 -12 9 1 -7 12 -6 13 6 3 12 -10 18
-10 27 -1 9 9 12 9 12 0 0 -10 5 -10 21 -2 14 8 24 8 33 1 9 -7 16 -7 26 2 10
10 11 9 5 -3 -8 -13 -6 -13 7 -2 13 10 17 10 20 0 4 -10 8 -10 21 1 16 13 22
8 18 -13 -1 -5 5 -4 13 3 8 7 21 9 27 5 8 -4 9 -3 5 4 -4 7 -2 12 3 12 6 0 11
-6 11 -12 0 -9 4 -8 10 2 7 12 10 12 10 1 0 -8 6 -11 18 -6 9 4 27 8 40 10 17
2 22 -1 17 -13 -5 -14 -4 -14 12 0 14 13 23 14 37 6 13 -7 17 -7 12 0 -7 11
19 10 30 -1 4 -3 15 -2 25 3 12 7 20 7 24 0 5 -8 11 -7 21 1 11 9 14 9 14 -1
0 -10 3 -10 15 0 12 10 15 10 15 -1 0 -12 2 -12 9 0 7 11 9 11 13 0 4 -12 8
-11 23 1 17 13 18 13 10 0 -7 -13 -6 -13 7 -2 13 10 17 10 20 0 4 -10 8 -10
21 1 11 8 17 9 17 2 0 -7 8 -8 27 0 20 7 28 6 35 -3 6 -10 8 -10 8 2 0 12 2
13 9 1 5 -7 14 -10 20 -6 7 4 23 8 37 10 19 2 24 -1 19 -13 -5 -14 -4 -14 12
0 14 13 23 14 37 6 13 -7 17 -7 12 0 -7 11 19 10 30 -1 4 -3 15 -2 25 3 12 7
20 7 24 0 3 -5 11 -10 16 -10 6 0 8 4 5 8 -3 5 2 9 10 9 9 0 13 -6 9 -16 -4
-10 2 -7 15 7 12 12 22 31 23 42 1 11 4 20 8 20 4 0 6 8 5 17 -2 10 3 24 11
31 7 8 11 17 8 22 -3 4 2 20 10 36 7 15 12 31 9 36 -3 4 0 8 6 8 7 0 10 7 6
15 -3 8 -1 15 5 15 6 0 9 6 6 13 -2 6 3 23 12 37 10 14 17 37 16 52 0 15 2 25
6 22 4 -2 10 14 14 36 4 22 11 40 16 40 5 0 8 3 7 8 -4 12 24 102 33 108 5 3
9 18 9 34 0 16 5 32 10 35 6 4 8 11 5 16 -4 5 -1 9 5 9 6 0 8 5 5 10 -3 6 -1
10 6 10 8 0 7 5 -2 17 -10 11 -10 14 -1 9 11 -7 13 -3 16 37 1 6 5 15 9 18 4
3 9 19 11 34 2 16 8 31 14 33 5 1 8 12 5 22 -3 11 -1 20 4 20 5 0 10 7 11 15
1 8 3 22 4 30 1 8 7 16 15 19 7 3 13 11 13 18 0 9 -3 8 -10 -2 -6 -9 -10 -10
-10 -3 0 6 6 18 13 25 7 7 12 22 12 33 0 11 7 26 15 33 13 12 13 13 0 6 -10
-5 -8 1 5 16 11 13 14 20 8 16 -7 -4 -13 -3 -13 2 0 6 6 12 14 15 7 3 14 18
14 32 0 15 4 30 9 34 5 3 9 15 8 26 0 11 4 23 9 27 5 3 11 17 13 29 5 34 19
45 37 29 13 -10 17 -10 21 1 4 12 26 15 78 10 5 -1 5 -7 2 -13 -4 -7 1 -4 9 6
9 11 16 15 16 10 0 -13 40 -13 41 1 0 5 4 1 9 -10 7 -17 9 -17 9 -3 1 14 5 16
25 8 17 -6 26 -5 28 2 2 6 11 4 21 -6 16 -16 17 -16 17 1 0 10 4 14 8 8 10
-14 42 -15 43 -1 0 6 4 2 9 -9 6 -13 9 -15 9 -5 1 14 18 16 74 11 5 -1 5 -7 2
-13 -4 -7 1 -4 9 6 9 11 16 15 16 10 0 -13 40 -13 41 1 0 5 4 1 9 -10 7 -17 9
-17 9 -3 1 14 5 16 25 8 17 -6 26 -5 28 2 2 6 11 4 21 -6 16 -16 17 -16 17 1
0 10 4 14 8 8 10 -14 42 -15 43 -1 0 6 4 2 9 -9 6 -13 9 -15 9 -5 1 14 18 16
74 11 5 -1 5 -7 2 -13 -4 -7 1 -4 9 6 9 11 16 15 16 10 0 -13 40 -13 41 1 0 5
4 1 9 -10 7 -17 9 -17 9 -3 1 14 5 16 25 8 17 -6 26 -5 28 2 2 6 11 4 21 -6
16 -16 17 -16 17 1 0 10 4 14 8 8 10 -14 42 -15 43 -1 0 6 4 2 9 -9 6 -13 9
-15 9 -5 1 14 18 16 74 11 5 -1 5 -7 2 -13 -4 -7 1 -4 9 6 9 11 16 15 16 10 0
-13 40 -13 41 1 0 5 4 1 9 -10 7 -17 9 -17 9 -3 1 14 5 16 25 8 17 -6 26 -5
28 2 2 6 11 4 21 -6 16 -16 17 -16 17 1 0 10 4 14 8 8 10 -14 42 -15 43 -1 0
6 4 2 9 -9 6 -13 9 -15 9 -5 1 14 18 16 74 11 5 -1 5 -7 2 -13 -4 -7 1 -4 9 6
9 11 16 15 16 10 0 -13 40 -13 41 1 0 5 4 1 9 -10 7 -17 9 -17 9 -3 1 14 5 16
25 8 17 -6 26 -5 28 2 2 6 11 4 21 -6 16 -16 17 -16 17 1 0 10 4 14 8 8 10
-14 42 -15 43 -1 0 6 4 2 9 -9 6 -13 9 -15 9 -5 1 14 18 16 74 11 5 -1 5 -7 2
-13 -4 -7 1 -4 9 6 9 11 16 15 16 10 0 -13 40 -13 41 1 0 5 4 1 9 -10 7 -17 9
-17 9 -3 1 14 5 16 25 8 17 -6 26 -5 28 2 2 6 11 4 21 -6 16 -16 17 -16 17 1
0 10 4 14 8 8 10 -14 42 -15 43 -1 0 6 4 2 9 -9 6 -13 9 -15 9 -5 1 14 18 16
74 11 5 -1 5 -7 2 -13 -4 -7 1 -4 9 6 9 11 16 15 16 10 0 -13 40 -13 41 1 0 5
4 1 9 -10 7 -17 9 -17 9 -3 1 14 5 16 25 8 17 -6 26 -5 28 2 2 6 11 4 21 -6
16 -16 17 -16 18 1 0 11 3 13 6 5 4 -10 8 -10 21 0 12 10 14 10 8 1 -4 -7 -3
-13 3 -13 5 0 11 5 13 11 3 8 10 6 21 -5 16 -16 17 -16 17 0 0 13 3 14 15 4
12 -10 15 -10 15 1 0 11 2 11 10 -1 7 -11 10 -11 10 -2 0 8 5 10 12 6 7 -5 24
-7 39 -6 29 2 55 -21 44 -39 -4 -6 -2 -15 5 -19 7 -4 13 -19 13 -34 0 -14 6
-31 13 -37 17 -14 18 -33 2 -23 -8 5 -7 1 2 -10 8 -10 15 -25 16 -34 2 -8 8
-18 15 -22 6 -4 9 -12 6 -17 -3 -5 1 -22 9 -38 8 -15 12 -30 9 -33 -3 -3 0
-11 6 -19 6 -7 8 -13 3 -13 -5 0 -3 -4 4 -8 7 -5 14 -23 15 -40 1 -18 5 -32
10 -32 4 0 7 -9 7 -21 0 -13 4 -18 13 -13 7 5 6 0 -3 -11 -12 -15 -12 -17 -1
-10 11 6 13 4 8 -8 -3 -10 -2 -17 4 -17 6 0 7 -4 4 -10 -3 -5 -2 -10 4 -10 5
0 8 -9 6 -20 -2 -11 0 -20 5 -20 5 0 7 -9 5 -20 -2 -11 0 -18 6 -15 5 4 9 -3
9 -14 0 -11 5 -23 10 -26 8 -5 7 -11 -1 -21 -10 -12 -10 -15 2 -12 8 2 13 -4
11 -14 -1 -9 2 -19 8 -23 5 -3 10 -15 10 -26 0 -10 5 -19 11 -19 5 0 8 -4 5
-9 -4 -5 -1 -22 5 -38 14 -32 20 -52 21 -70 1 -7 5 -13 10 -13 4 0 8 -13 8
-29 0 -17 5 -33 10 -36 6 -3 10 -15 10 -26 0 -10 4 -19 8 -19 4 0 9 -15 10
-32 2 -18 7 -34 12 -36 6 -2 10 -17 10 -33 0 -17 4 -28 9 -25 5 3 11 -1 15 -9
3 -8 0 -15 -6 -15 -7 0 -7 -4 1 -13 6 -8 8 -17 4 -20 -3 -4 -2 -7 4 -7 9 0 28
-54 24 -72 0 -5 6 -8 14 -8 8 0 15 -8 15 -17 1 -17 1 -17 11 0 8 14 14 15 31
6 12 -7 18 -7 14 -1 -7 11 19 10 30 -1 4 -3 15 -2 25 3 12 7 20 7 24 0 5 -8
11 -7 21 1 11 9 14 9 14 -1 0 -10 3 -10 15 0 12 10 15 10 15 -1 0 -12 2 -12 9
0 7 11 9 11 13 0 4 -12 8 -11 23 1 17 13 18 13 10 0 -7 -13 -6 -13 7 -2 13 10
17 10 20 0 4 -10 8 -10 21 1 11 8 17 9 17 2 0 -7 8 -8 27 0 20 7 28 6 35 -3 6
-10 8 -10 8 2 0 12 2 13 9 1 5 -7 14 -10 20 -6 7 4 23 8 37 10 19 2 24 -1 19
-13 -5 -14 -4 -14 12 0 14 13 23 14 37 6 13 -7 17 -7 12 0 -7 11 19 10 30 -1
4 -3 15 -2 25 3 12 7 20 7 24 0 5 -8 12 -7 23 2 12 10 16 10 19 1 3 -7 9 -13
14 -13 6 0 7 6 3 13 -6 9 -5 9 7 0 12 -10 18 -10 27 -1 9 9 12 9 12 -1 0 -9 6
-11 18 -6 9 4 27 8 40 10 17 2 22 -1 17 -13 -5 -14 -4 -14 12 0 14 13 23 14
37 6 13 -7 17 -7 12 0 -7 11 19 10 30 -1 4 -3 15 -2 25 3 12 7 20 7 24 0 5 -8
11 -7 21 1 11 9 14 9 14 -1 0 -10 3 -10 15 0 10 9 15 9 15 1 0 -8 6 -8 19 1
16 10 18 15 8 27 -10 12 -9 13 3 7 9 -4 8 -2 -2 7 -10 8 -15 17 -11 20 3 4 1
13 -5 20 -7 8 -9 17 -5 20 3 4 1 7 -6 7 -7 0 -9 5 -5 11 3 6 2 14 -4 18 -5 3
-12 17 -13 31 -2 14 -8 28 -12 31 -4 3 -9 16 -10 27 -1 12 -5 22 -9 22 -4 0
-7 3 -7 8 3 18 -2 33 -10 28 -4 -3 -7 6 -5 19 1 14 -4 32 -13 40 -8 8 -11 15
-7 15 3 0 0 8 -7 17 -9 11 -10 14 -2 9 9 -5 11 -2 7 8 -3 9 -9 16 -13 16 -4 0
-8 6 -9 13 -6 48 -10 59 -19 65 -5 4 -9 15 -7 25 1 9 -2 17 -8 17 -6 0 -8 9
-5 20 3 11 1 18 -3 15 -5 -3 -11 -1 -15 5 -3 5 0 10 7 10 10 0 10 2 0 8 -7 5
-15 19 -17 32 -2 13 -9 28 -14 33 -5 5 -7 16 -4 23 3 8 0 14 -7 14 -6 0 -10 6
-7 13 2 6 -3 18 -12 25 -9 8 -10 11 -3 7 17 -9 15 6 -5 35 -10 14 -17 26 -15
28 8 8 0 22 -10 16 -6 -4 -8 -3 -5 3 3 5 1 27 -5 49 -6 21 -11 42 -10 47 1 4
-2 7 -7 7 -4 0 -14 20 -21 45 -7 24 -16 42 -21 39 -5 -3 -6 2 -3 11 4 8 1 22
-6 30 -6 8 -9 19 -5 25 3 5 1 10 -5 10 -7 0 -10 6 -7 13 2 6 -3 18 -12 25 -12
10 -13 12 -1 6 13 -7 13 -5 2 9 -8 9 -11 21 -7 27 3 5 1 10 -5 10 -6 0 -8 5
-5 10 3 6 1 10 -4 10 -6 0 -11 10 -11 23 0 12 -9 40 -20 62 -11 22 -20 47 -20
56 0 10 -6 24 -13 31 -7 7 -12 20 -12 28 1 8 -6 24 -14 34 -11 13 -12 17 -2
11 9 -5 8 0 -3 18 -13 20 -14 26 -4 30 8 3 6 6 -5 6 -10 1 -16 5 -12 10 3 5 1
12 -4 16 -6 3 -8 12 -4 20 3 8 0 15 -7 15 -6 0 -8 5 -5 10 3 6 0 10 -7 10 -9
0 -9 3 2 10 10 6 11 10 3 10 -7 0 -13 7 -13 16 0 8 -4 12 -10 9 -5 -3 -9 2 -8
12 2 33 -2 54 -11 49 -4 -3 -8 7 -7 22 0 15 -4 26 -10 25 -5 -1 -9 14 -9 32 1
19 -3 33 -9 32 -6 -1 -12 5 -12 13 -1 8 -3 20 -4 25 -1 6 -2 13 -1 18 0 4 -3
7 -7 7 -5 0 -9 6 -10 13 -5 35 -11 56 -30 97 -11 24 -18 48 -16 52 3 4 0 8 -5
8 -6 0 -11 11 -11 25 0 14 -5 25 -11 25 -5 0 -7 5 -4 10 3 6 2 10 -4 10 -5 0
-8 8 -7 18 4 22 -14 62 -28 62 -6 0 -4 5 4 10 11 7 11 10 2 10 -7 0 -10 5 -7
10 3 6 1 10 -5 10 -6 0 -10 6 -9 13 1 6 -1 21 -6 32 -4 11 -14 35 -21 54 -8
18 -11 37 -8 42 3 5 -1 12 -10 15 -8 3 -13 14 -11 25 2 10 1 19 -3 19 -8 0
-32 72 -32 95 0 10 -5 13 -12 9 -8 -5 -9 0 -6 14 4 15 0 25 -10 32 -14 8 -14
9 -2 10 12 0 13 2 1 9 -8 5 -14 22 -15 39 0 17 -5 30 -11 29 -5 -1 -9 6 -7 16
2 9 -1 17 -6 17 -6 0 -13 7 -16 16 -4 9 -2 13 5 8 8 -5 8 -1 0 13 -6 11 -7 24
-3 28 4 5 1 5 -5 1 -8 -4 -13 -2 -14 6 -2 31 -8 51 -19 58 -6 4 -10 11 -9 16
1 5 -1 18 -5 29 -17 44 -19 51 -23 69 -2 11 -8 25 -13 31 -5 7 -7 15 -3 18 3
4 0 14 -8 23 -7 9 -15 28 -17 43 -2 14 -7 28 -13 29 -5 2 -9 15 -9 28 0 13 -5
24 -11 24 -6 0 -9 7 -5 15 3 8 1 15 -3 15 -5 0 -7 10 -4 23 4 18 3 19 -6 7 -8
-12 -11 -8 -11 18 0 17 -4 32 -8 32 -4 0 -9 12 -10 27 -1 15 -6 29 -11 32 -5
3 -11 17 -12 31 -2 14 -7 28 -11 31 -5 3 -9 17 -10 31 -1 15 -5 25 -9 22 -9
-5 -21 55 -13 67 3 5 0 8 -8 7 -7 -2 -12 3 -10 10 1 6 -3 12 -9 12 -5 0 -8 4
-5 9 4 5 1 22 -5 38 -7 15 -13 34 -15 42 -1 8 -7 17 -12 20 -5 3 -8 14 -6 24
1 9 -3 23 -9 30 -7 6 -14 23 -15 37 -2 14 -8 27 -13 28 -5 2 -7 8 -3 13 3 5
-1 9 -8 9 -11 0 -11 2 0 9 10 6 10 10 -3 21 -8 7 -15 23 -15 36 0 12 -4 26
-10 29 -5 3 -10 17 -10 31 0 13 -5 24 -11 24 -5 0 -8 4 -4 9 3 5 1 12 -4 16
-6 3 -7 13 -4 22 5 12 3 14 -7 8 -10 -6 -12 -3 -8 13 4 12 2 22 -4 22 -6 0 -8
7 -4 15 3 8 2 15 -2 15 -4 0 -12 11 -18 24 -9 18 -9 28 0 37 8 9 8 10 -1 5
-12 -6 -18 5 -14 27 0 4 -4 7 -10 7 -6 0 -8 7 -5 15 3 9 -1 18 -9 21 -8 4 -12
10 -9 15 3 6 0 17 -8 26 -9 12 -9 15 -1 9 9 -5 11 -2 7 8 -3 9 -11 16 -17 16
-6 0 -7 3 -4 6 3 4 2 15 -4 26 -6 11 -12 29 -14 40 -3 12 -8 24 -13 27 -4 3
-7 13 -7 21 1 8 -3 20 -8 27 -5 7 -5 18 -1 24 4 8 3 9 -4 5 -8 -5 -12 1 -12
18 0 13 -4 26 -9 28 -5 2 -11 14 -13 28 -1 14 -10 30 -18 37 -13 10 -13 12 -1
13 10 0 7 8 -10 27 -13 14 -18 23 -11 19 16 -10 15 5 -3 31 -8 12 -16 33 -17
47 -1 14 -5 26 -8 26 -3 0 -11 13 -17 30 -8 21 -8 30 1 34 6 2 3 5 -6 5 -11 1
-16 8 -13 21 2 11 -1 20 -7 20 -5 0 -7 7 -4 15 3 9 0 18 -7 21 -7 2 -14 17
-15 32 -1 15 -7 29 -12 30 -6 2 -10 15 -10 28 0 13 -4 24 -10 24 -5 0 -7 6 -4
14 3 8 0 17 -5 21 -6 3 -9 11 -6 16 4 5 1 9 -5 9 -6 0 -9 4 -5 9 8 15 -16 61
-29 54 -6 -4 -5 1 3 10 8 11 9 17 3 17 -7 0 -9 7 -5 17 4 11 3 14 -5 9 -8 -5
-12 2 -12 22 0 17 -6 32 -13 35 -8 3 -13 18 -12 36 1 16 -2 28 -6 26 -4 -3
-10 11 -13 30 -4 20 -11 33 -15 31 -4 -3 -7 8 -6 24 1 17 -1 30 -5 30 -4 0
-12 11 -18 25 -8 16 -8 25 -1 25 5 0 1 9 -10 21 -11 12 -17 27 -14 35 3 8 1
14 -4 14 -5 0 -10 7 -11 15 -1 8 -3 22 -4 30 -1 8 -5 15 -10 15 -5 0 -7 4 -3
9 3 5 0 13 -6 16 -5 4 -8 13 -5 21 3 8 1 14 -5 14 -6 0 -7 5 -4 10 3 6 2 10
-3 10 -5 0 -9 7 -10 15 -1 8 -3 22 -4 30 -1 8 -4 15 -7 15 -9 0 -36 92 -32
109 1 7 -2 10 -8 6 -10 -6 -16 8 -12 29 1 5 -6 18 -16 29 -10 11 -12 17 -6 13
9 -5 11 -2 7 8 -3 9 -10 16 -15 16 -4 0 -6 7 -3 15 4 8 1 15 -5 15 -6 0 -10 3
-9 8 3 16 -15 62 -26 63 -6 1 -253 3 -548 3 -367 1 -538 -1 -539 -9z m567
-1091 c-3 -8 -1 -14 5 -14 6 0 8 -4 4 -9 -3 -5 0 -13 6 -16 5 -4 8 -13 5 -21
-3 -8 -1 -14 5 -14 6 0 7 -4 4 -10 -3 -5 -2 -10 4 -10 5 0 8 -9 6 -20 -2 -11
1 -20 6 -20 6 0 7 -4 4 -10 -3 -5 -2 -10 2 -10 5 0 10 -8 11 -17 1 -10 3 -27
4 -38 2 -11 9 -25 17 -31 8 -6 11 -16 7 -22 -4 -7 -1 -12 6 -12 9 0 9 -3 -2
-10 -13 -9 -13 -10 0 -10 10 0 16 -10 18 -26 1 -15 6 -32 12 -39 5 -6 8 -21 5
-33 -2 -13 1 -21 8 -19 7 1 11 -8 11 -20 -1 -13 3 -23 9 -23 6 0 7 -3 4 -7 -4
-3 -1 -13 6 -21 10 -13 9 -15 -3 -8 -13 6 -13 5 0 -6 9 -7 14 -21 12 -32 -3
-13 0 -16 9 -11 8 5 10 4 5 -3 -4 -7 0 -26 8 -44 14 -33 36 -98 40 -121 1 -7
8 -22 14 -35 7 -12 10 -27 6 -33 -4 -6 -1 -15 6 -19 7 -5 14 -16 15 -27 1 -10
7 -28 13 -40 7 -13 9 -23 5 -23 -4 0 -2 -5 4 -11 6 -6 9 -18 6 -27 -4 -10 -2
-13 5 -8 8 5 10 2 6 -8 -4 -9 -1 -16 6 -16 7 0 10 -7 6 -17 -4 -9 -1 -20 5
-24 7 -4 14 -22 16 -40 2 -18 8 -36 15 -40 6 -4 8 -14 5 -23 -4 -9 -2 -16 4
-16 5 0 9 -8 7 -17 -2 -11 2 -17 11 -15 12 3 12 0 1 -12 -9 -12 -9 -16 -1 -16
7 0 9 -4 6 -10 -3 -5 -2 -10 2 -10 8 0 13 -18 16 -62 1 -9 5 -14 9 -12 7 5 13
-26 9 -48 0 -5 7 -8 17 -8 13 0 14 -2 3 -9 -10 -6 -10 -10 -1 -16 6 -4 9 -13
6 -21 -3 -8 -1 -14 4 -14 6 0 10 -11 10 -24 0 -13 7 -29 15 -36 8 -7 12 -16
10 -21 -3 -4 1 -24 9 -43 8 -19 12 -37 8 -40 -3 -3 0 -6 7 -6 7 0 11 -7 8 -15
-4 -8 -2 -17 4 -20 5 -4 7 -11 4 -16 -4 -5 -2 -9 3 -9 5 0 9 -7 10 -15 1 -8 3
-22 4 -30 1 -8 4 -15 8 -15 3 0 6 -10 7 -22 1 -11 6 -24 10 -27 7 -5 12 -23
15 -58 1 -7 5 -13 10 -13 4 0 8 -14 8 -31 0 -16 4 -28 8 -25 4 2 9 -3 10 -12
4 -34 8 -52 15 -58 4 -4 7 -16 7 -26 0 -10 4 -18 8 -18 4 0 8 -8 9 -17 3 -37
8 -58 16 -64 4 -3 9 -16 10 -27 1 -12 6 -22 11 -22 5 0 6 -3 3 -7 -4 -3 0 -17
9 -31 9 -13 11 -22 5 -18 -5 4 -4 -6 4 -20 8 -15 12 -31 9 -36 -3 -4 -1 -8 4
-8 6 0 13 -15 16 -32 3 -18 12 -44 19 -58 7 -14 12 -35 11 -47 -1 -15 4 -23
15 -23 14 0 14 -2 1 -10 -12 -8 -12 -10 -1 -10 8 0 11 -7 8 -20 -3 -11 0 -23
5 -27 7 -4 8 -1 3 8 -5 8 -5 11 0 7 5 -5 10 -22 12 -40 2 -18 9 -36 16 -40 6
-4 8 -8 2 -8 -5 0 -4 -5 2 -11 6 -6 9 -18 6 -27 -4 -10 -2 -13 5 -8 8 5 10 2
6 -8 -3 -9 -2 -16 4 -16 5 0 8 -11 7 -25 -2 -14 1 -25 6 -25 5 0 9 -14 9 -31
0 -17 4 -28 10 -24 6 3 10 -4 11 -17 0 -13 2 -30 4 -38 2 -11 -6 -15 -30 -14
-17 1 -37 4 -43 8 -5 3 -13 0 -15 -6 -4 -10 -8 -9 -16 2 -8 11 -11 11 -11 2 0
-10 -5 -10 -21 -1 -15 8 -19 8 -15 0 4 -6 2 -11 -3 -11 -6 0 -11 6 -11 13 0 7
-7 4 -15 -7 -9 -12 -15 -15 -15 -7 0 9 -11 12 -35 9 -19 -2 -35 0 -35 5 0 4
-5 5 -11 1 -14 -8 -263 -9 -277 0 -5 3 -13 0 -15 -6 -4 -10 -8 -9 -16 2 -8 11
-11 11 -11 2 0 -10 -5 -10 -21 -1 -15 8 -19 8 -15 0 4 -6 2 -11 -3 -11 -6 0
-11 6 -11 13 0 7 -7 4 -15 -7 -9 -12 -15 -15 -15 -7 0 9 -11 12 -35 9 -19 -2
-35 0 -35 5 0 4 -5 5 -11 1 -14 -8 -263 -9 -277 0 -5 3 -13 0 -15 -6 -4 -10
-8 -9 -16 2 -8 11 -11 11 -11 2 0 -10 -5 -10 -21 -1 -15 8 -19 8 -15 0 4 -6 2
-11 -3 -11 -6 0 -11 6 -11 13 0 7 -7 4 -15 -7 -8 -11 -15 -15 -15 -8 0 8 -28
11 -93 10 -51 -1 -98 1 -104 5 -6 4 -14 1 -16 -5 -4 -10 -8 -9 -16 2 -8 11
-11 11 -11 2 0 -10 -5 -10 -21 -1 -15 8 -19 8 -15 0 4 -6 2 -11 -3 -11 -6 0
-11 6 -11 13 0 7 -7 4 -15 -7 -9 -12 -15 -15 -15 -7 0 9 -11 12 -35 9 -19 -2
-35 0 -35 5 0 4 -5 5 -11 1 -6 -3 -68 -6 -137 -6 -190 1 -172 -3 -160 35 5 17
10 38 11 45 0 6 4 12 8 12 5 0 5 7 2 17 -5 12 -3 14 7 8 10 -6 12 -2 8 19 -3
14 0 30 6 34 6 4 12 15 14 25 1 9 3 25 5 35 1 9 8 22 16 28 8 6 11 16 8 21 -4
6 0 25 9 42 8 17 13 35 9 41 -3 5 -1 10 5 10 6 0 8 5 5 10 -3 6 -1 10 5 10 7
0 10 7 6 15 -3 8 -1 15 5 15 6 0 8 4 4 9 -3 5 -1 12 4 15 7 5 15 29 27 90 3
11 9 25 15 32 5 6 11 26 12 43 1 17 7 33 14 35 7 3 10 14 8 25 -2 11 1 23 6
26 5 4 7 11 4 16 -4 5 -1 9 5 9 7 0 9 7 6 16 -4 10 -2 13 6 8 7 -5 9 -2 5 8
-3 9 -3 19 1 23 7 7 8 12 11 41 0 9 6 12 13 8 8 -5 9 -2 5 9 -4 10 -1 17 6 18
8 0 9 2 1 5 -16 7 -4 46 11 40 10 -4 11 2 5 25 -5 16 -5 27 0 24 8 -5 24 32
21 49 -1 4 3 14 9 20 5 7 7 16 3 19 -3 4 -1 7 5 7 6 0 9 9 7 20 -2 11 1 20 7
20 6 0 8 3 5 7 -4 3 -2 12 4 20 6 7 9 22 6 34 -4 14 -2 17 6 10 9 -7 13 -1 14
21 1 17 8 37 15 46 11 13 11 14 -2 7 -11 -6 -10 -3 3 12 9 11 14 23 11 26 -4
4 -2 13 4 20 7 8 9 17 5 20 -3 4 -1 7 5 7 6 0 9 9 7 20 -2 11 3 26 11 34 8 8
13 19 12 23 -4 20 24 93 34 87 7 -4 8 -3 4 5 -4 6 -2 19 6 28 11 14 11 16 -2
8 -13 -8 -13 -7 -1 8 7 9 10 17 6 17 -4 0 -2 6 4 13 6 8 12 24 14 36 2 13 10
27 18 32 11 7 12 9 0 9 -10 0 -11 3 -2 13 6 8 8 17 4 20 -3 4 1 9 9 12 10 4
14 16 12 36 -2 18 0 28 6 24 9 -5 15 23 11 48 0 4 4 7 10 7 5 0 8 4 4 9 -3 5
-1 12 5 16 6 3 8 17 6 30 -3 15 0 24 7 22 7 -1 12 9 11 25 0 15 4 24 10 21 5
-4 7 1 3 10 -3 10 -2 17 3 17 6 0 10 8 10 18 0 10 6 24 13 31 10 11 9 12 -3 6
-12 -7 -13 -6 -3 6 6 8 13 23 15 34 1 11 6 23 10 26 5 3 9 18 10 33 2 16 8 30
14 33 6 2 10 19 9 38 0 18 3 31 7 29 4 -3 8 0 8 5 0 22 2 26 18 45 9 11 11 16
5 12 -7 -4 -13 -2 -13 3 0 6 5 11 10 11 6 0 10 7 10 15 0 9 7 30 16 47 9 16
11 27 5 24 -7 -4 -8 -1 -5 8 3 9 10 16 14 16 5 0 7 9 5 20 -2 11 0 18 4 15 8
-5 11 4 27 83 3 17 9 32 13 32 4 0 8 12 9 27 1 15 7 30 13 34 7 4 9 16 6 28
-3 12 -1 19 4 15 5 -3 9 4 9 15 0 12 4 21 8 21 5 0 8 13 7 30 -1 16 1 27 5 25
4 -3 10 9 14 26 3 18 10 28 17 24 6 -4 8 -13 5 -21z"/>
<path d="M8470 6273 c0 -5 -19 -9 -42 -8 -41 0 -43 -1 -43 -30 0 -16 -4 -33
-10 -37 -7 -5 -6 -8 0 -8 6 0 11 -9 12 -20 1 -13 -2 -18 -9 -14 -7 5 -8 2 -3
-6 11 -17 13 -140 3 -146 -5 -3 -4 -14 2 -24 7 -13 7 -21 0 -25 -8 -5 -7 -11
1 -21 9 -11 8 -14 -2 -14 -12 0 -12 -2 -1 -9 8 -4 14 -12 14 -16 0 -4 -6 -12
-14 -16 -8 -6 -9 -9 -1 -9 11 0 11 -45 -1 -57 -3 -3 -1 -13 6 -20 9 -11 9 -17
-3 -24 -9 -6 -10 -12 -4 -16 6 -5 10 -55 10 -113 0 -58 -4 -108 -10 -112 -7
-5 -7 -11 0 -15 6 -5 9 -33 8 -63 -4 -65 -4 -59 0 -135 2 -34 -2 -63 -8 -67
-6 -5 -7 -11 0 -15 13 -11 14 -136 0 -145 -6 -5 -7 -11 0 -15 12 -10 15 -143
3 -143 -5 0 -6 -5 -2 -12 11 -18 13 -68 2 -68 -5 0 -6 -5 -2 -12 11 -18 13
-68 2 -68 -5 0 -6 -5 -2 -11 11 -18 12 -103 1 -116 -6 -9 -6 -13 1 -13 11 0
10 -25 -1 -36 -4 -4 -2 -13 4 -21 9 -10 8 -13 -2 -13 -12 0 -12 -2 -1 -9 8 -4
14 -12 14 -16 0 -4 -6 -12 -14 -16 -8 -6 -9 -9 -1 -9 11 0 11 -45 -1 -57 -3
-3 -1 -13 6 -20 9 -11 9 -17 -3 -24 -9 -6 -10 -12 -4 -16 6 -5 10 -55 10 -113
0 -58 -4 -108 -10 -112 -7 -5 -7 -11 0 -15 13 -10 13 -136 0 -145 -7 -5 -7
-11 0 -15 6 -5 10 -55 10 -113 0 -58 -4 -108 -10 -112 -7 -5 -7 -10 0 -15 6
-5 10 -55 10 -113 0 -58 -4 -108 -10 -112 -7 -6 -7 -11 0 -15 12 -10 15 -103
3 -103 -5 0 -6 -5 -2 -12 11 -18 13 -68 2 -68 -5 0 -6 -5 -2 -12 11 -18 13
-68 2 -68 -5 0 -6 -5 -2 -12 11 -18 13 -68 2 -68 -5 0 -6 -5 -2 -12 11 -18 13
-68 2 -68 -5 0 -6 -5 -2 -12 11 -18 13 -68 2 -68 -5 0 -6 -5 -2 -12 11 -18 13
-68 2 -68 -5 0 -6 -5 -2 -12 11 -18 13 -68 2 -68 -5 0 -6 -5 -2 -11 11 -19 10
-183 -1 -191 -7 -5 -7 -11 0 -15 6 -5 10 -55 10 -113 0 -58 -4 -108 -10 -112
-7 -5 -7 -10 0 -15 6 -5 10 -55 10 -113 0 -58 -4 -108 -10 -112 -7 -5 -7 -10
0 -15 11 -9 13 -218 2 -229 -3 -4 -2 -15 3 -25 7 -12 7 -20 0 -24 -8 -5 -7
-11 1 -21 9 -11 8 -14 -2 -14 -12 0 -12 -2 -1 -9 17 -11 17 -21 0 -32 -8 -6
-9 -9 -1 -9 11 0 11 -45 -1 -57 -3 -3 -1 -13 6 -20 9 -11 9 -17 -3 -24 -9 -6
-10 -12 -4 -16 12 -9 13 -93 1 -111 -4 -7 -4 -12 1 -12 12 0 10 -134 -2 -142
-7 -5 -7 -11 0 -15 13 -11 14 -136 0 -145 -6 -5 -7 -11 0 -15 12 -10 14 -143
2 -143 -4 0 -5 -5 -1 -12 11 -18 13 -68 2 -68 -5 0 -6 -5 -2 -12 11 -18 13
-68 2 -68 -5 0 -6 -5 -2 -11 11 -19 11 -103 -1 -112 -6 -4 -7 -10 0 -15 12 -8
14 -222 3 -222 -5 0 -8 -5 -8 -11 0 -5 3 -8 8 -6 4 3 7 -54 6 -126 -1 -95 3
-135 12 -144 7 -7 15 -9 18 -5 6 10 36 9 54 -2 7 -4 12 -2 12 6 0 10 2 10 9
-1 5 -7 11 -9 14 -4 7 11 36 11 54 0 6 -4 14 -1 16 5 4 10 6 9 6 -1 1 -11 4
-11 16 -1 11 9 15 9 15 1 0 -7 5 -9 12 -5 18 12 48 12 55 1 3 -5 9 -3 14 4 7
12 9 12 9 0 0 -11 3 -11 15 -1 11 9 15 9 15 1 0 -7 5 -9 12 -5 18 12 48 12 55
1 3 -5 9 -3 14 4 7 12 9 12 9 0 0 -11 3 -11 15 -1 11 9 15 9 15 1 0 -7 5 -9
12 -5 18 12 48 12 55 1 3 -5 9 -3 14 4 7 12 9 12 9 0 0 -11 3 -11 15 -1 11 9
15 9 15 1 0 -7 5 -9 12 -5 18 12 48 12 55 1 3 -5 9 -3 14 4 7 12 9 12 9 0 0
-11 3 -11 15 -1 11 9 15 9 15 1 0 -7 5 -9 12 -5 18 12 48 12 55 1 3 -5 9 -3
14 4 7 12 9 12 9 0 0 -11 3 -11 15 -1 11 9 15 9 15 1 0 -7 5 -9 12 -5 18 12
48 12 55 1 3 -5 9 -3 14 4 7 12 9 12 9 0 0 -11 3 -11 15 -1 11 9 15 9 15 1 0
-7 5 -9 12 -5 18 12 48 12 55 1 3 -5 9 -3 14 4 7 12 9 12 9 0 0 -11 3 -11 15
-1 12 10 15 10 15 0 0 -8 4 -9 13 -4 14 11 37 11 54 1 6 -4 14 -3 18 3 4 7 12
7 26 0 14 -8 19 -7 19 2 0 10 3 9 9 -1 7 -11 13 -12 23 -3 11 9 17 9 26 0 9
-9 12 -9 12 2 0 12 2 12 9 2 4 -8 12 -14 16 -14 4 0 12 6 16 14 7 11 9 11 9
-1 0 -10 3 -11 14 -2 9 7 17 8 20 2 7 -10 31 -9 42 2 4 4 13 2 21 -4 10 -9 13
-8 13 2 0 12 2 12 9 1 4 -8 12 -14 16 -14 4 0 12 6 16 14 7 11 9 11 9 -1 0
-10 3 -11 14 -2 9 7 17 8 20 2 7 -10 31 -9 42 2 4 4 13 2 21 -4 10 -9 13 -8
13 2 0 12 2 12 9 1 4 -8 12 -14 16 -14 4 0 12 6 16 14 7 11 9 11 9 -1 0 -10 3
-11 14 -2 9 7 17 8 20 2 7 -10 24 -10 43 2 6 4 15 2 19 -4 4 -8 9 -7 15 2 7
11 9 11 9 1 0 -9 5 -10 18 -3 13 7 23 6 30 -1 9 -9 12 -8 12 2 0 13 2 13 10 0
6 -10 10 -11 10 -3 0 15 21 13 32 -2 5 -6 8 -5 8 4 0 11 3 11 17 0 15 -12 16
-12 10 5 -7 18 -6 18 19 1 21 -14 26 -14 22 -3 -7 17 32 19 44 3 5 -7 8 -7 8
0 0 6 19 10 43 10 23 -1 52 3 65 7 14 5 22 4 22 -3 0 -8 4 -8 14 0 11 9 16 9
22 0 5 -9 11 -7 21 6 9 14 13 15 13 4 0 -8 3 -10 8 -4 11 16 46 19 36 3 -4 -7
2 -4 14 6 17 14 22 16 22 5 0 -12 2 -12 9 0 5 7 14 10 20 7 6 -4 11 -1 11 6 0
11 2 11 9 0 6 -10 10 -10 21 3 10 12 15 13 21 4 5 -9 11 -10 21 -2 20 15 50
24 43 13 -3 -6 -1 -10 4 -10 6 0 11 7 11 16 0 14 3 14 15 4 11 -9 15 -9 15 -1
0 7 3 10 8 8 4 -3 18 0 32 6 14 5 36 10 50 10 14 1 31 8 38 16 9 10 11 11 6 2
-5 -10 -3 -12 7 -5 16 10 20 11 50 13 11 0 18 5 15 10 -3 5 6 9 20 9 15 0 30
6 35 13 7 12 9 11 9 -1 0 -13 1 -13 10 0 5 8 10 11 10 6 0 -5 10 -1 22 10 14
12 19 14 13 4 -6 -12 -5 -13 6 -3 7 7 21 13 30 13 10 0 25 7 33 16 12 12 16
12 16 2 1 -10 4 -9 13 2 7 8 19 17 27 19 25 6 45 9 53 10 5 1 5 7 1 14 -4 6
-4 9 1 5 4 -4 23 -1 41 7 19 8 34 11 34 7 0 -4 5 1 11 11 6 9 14 15 20 12 5
-4 9 -2 9 4 0 6 7 7 17 4 11 -4 14 -3 9 5 -4 7 -2 13 3 13 32 4 92 34 84 42
-3 4 1 7 10 7 16 0 56 18 67 31 3 3 13 8 23 12 11 4 15 12 11 18 -4 8 -3 9 4
5 7 -4 18 -4 25 1 6 4 17 8 22 8 6 1 9 7 7 14 -1 7 2 10 7 7 5 -4 16 1 24 9 9
8 20 15 26 15 5 0 14 7 19 16 5 9 12 15 16 13 10 -2 41 18 70 46 12 11 24 19
28 18 5 -2 8 2 8 9 0 6 2 9 5 6 5 -5 42 22 86 65 11 9 24 17 30 17 5 0 8 4 5
8 -2 4 9 14 25 21 16 7 27 17 23 22 -3 5 -1 9 5 9 6 0 26 16 46 35 19 20 35
33 35 30 0 -3 6 0 14 7 8 7 12 16 9 21 -2 4 1 7 7 7 15 0 90 76 83 84 -4 3 1
6 10 6 9 0 17 6 17 14 0 8 5 18 12 22 7 5 8 3 3 -6 -5 -9 -4 -11 3 -6 7 4 12
12 12 17 0 5 11 21 25 35 14 14 25 29 25 35 0 6 5 7 10 4 6 -3 10 0 10 8 0 8
7 18 16 21 8 3 12 10 9 16 -3 5 1 10 9 10 9 0 16 7 16 15 0 9 7 18 15 21 8 4
12 10 9 15 -3 5 2 9 11 9 9 0 14 4 11 9 -4 5 9 25 28 44 19 20 32 37 30 40 -2
2 7 14 21 27 14 13 25 32 25 42 0 11 5 16 10 13 6 -3 10 1 10 9 0 9 5 16 11
16 5 0 8 4 5 9 -3 4 3 16 14 26 11 10 17 22 14 26 -3 5 0 9 5 9 6 0 11 7 11
15 0 8 5 15 11 15 5 0 7 5 4 10 -3 6 -1 10 4 10 6 0 11 7 11 15 0 9 6 18 14
21 8 3 12 12 9 20 -3 8 -1 14 4 14 5 0 15 16 23 35 8 19 18 35 22 35 5 0 6 5
3 10 -3 6 -1 10 4 10 6 0 10 3 10 8 -3 20 2 32 13 26 7 -5 8 -3 3 6 -4 7 -2
15 4 19 6 4 14 18 16 32 3 13 9 25 15 27 6 2 8 7 5 12 -3 5 0 14 7 22 7 7 13
18 14 23 1 26 17 65 27 65 6 0 8 3 4 6 -3 4 0 19 8 34 8 15 11 31 7 34 -4 4 2
12 12 18 15 8 16 12 5 19 -11 7 -11 9 -1 9 7 0 10 5 7 10 -3 5 -2 10 4 10 6 0
7 7 4 17 -4 10 -2 14 4 10 6 -4 10 1 10 11 0 40 4 53 13 47 6 -4 10 -3 9 2 -4
22 2 64 9 60 4 -3 8 13 9 36 2 22 6 43 10 46 5 3 9 15 10 26 5 40 9 53 21 67
9 11 9 17 0 26 -7 7 -8 12 -2 12 6 0 10 16 9 35 -1 19 2 35 6 35 5 0 5 7 2 17
-4 11 -3 14 5 9 7 -4 12 -2 12 3 0 6 -6 11 -12 11 -10 0 -9 3 1 9 8 6 11 16 6
31 -4 13 -3 20 2 17 11 -7 11 23 0 40 -4 6 -2 15 4 19 8 5 9 3 4 -6 -5 -9 -4
-11 4 -6 9 6 9 11 0 22 -9 10 -9 14 0 14 7 0 10 11 8 28 -2 15 -1 41 3 58 4
17 3 39 -3 49 -6 12 -6 16 1 11 6 -4 10 1 10 11 0 10 0 23 2 28 5 22 0 36 -12
29 -10 -6 -10 -4 -2 7 15 19 24 59 13 59 -4 0 -6 7 -3 15 4 8 10 12 16 9 5 -3
4 3 -3 14 -10 16 -10 23 0 35 8 11 9 17 1 22 -6 4 -10 14 -8 23 1 10 -1 22 -5
29 -4 6 1 19 10 29 17 17 17 17 1 11 -10 -3 -20 -2 -23 3 -4 6 -2 10 3 10 6 0
10 23 9 50 0 28 -3 50 -6 50 -3 0 -6 15 -6 34 0 19 3 32 8 29 4 -2 7 1 7 6 0
6 -5 11 -11 11 -5 0 -8 4 -5 8 2 4 1 14 -4 21 -4 8 -4 27 0 43 5 16 5 26 0 23
-5 -3 -11 -1 -15 5 -3 5 -2 10 4 10 6 0 6 11 1 30 -5 17 -6 30 -3 30 3 0 0 6
-6 14 -9 11 -9 15 1 19 10 4 10 6 1 6 -7 1 -13 6 -13 12 0 5 6 7 13 4 6 -4 5
-1 -3 7 -9 7 -16 25 -17 41 -2 59 -3 68 -10 64 -5 -3 -9 15 -10 40 -1 25 -7
49 -13 53 -9 6 -9 9 1 13 10 4 10 6 2 6 -8 1 -13 15 -13 35 0 19 -4 36 -9 38
-5 2 -11 19 -14 38 -2 19 -8 34 -13 33 -5 -1 -9 11 -8 25 0 15 -8 42 -18 60
-10 19 -15 31 -10 28 5 -3 9 1 9 8 0 8 -6 12 -14 9 -9 -4 -11 0 -7 11 3 9 1
16 -5 16 -6 0 -8 6 -5 14 3 8 0 17 -5 21 -6 3 -9 11 -6 16 4 5 1 9 -6 9 -7 0
-9 3 -6 7 4 3 2 12 -4 20 -6 7 -9 13 -5 13 3 0 -3 17 -14 38 -25 49 -44 95
-42 105 1 4 -3 7 -9 7 -5 0 -7 5 -4 10 3 6 1 10 -5 10 -6 0 -8 5 -5 10 3 6 1
10 -4 10 -6 0 -11 5 -11 12 0 6 -8 20 -17 31 -11 13 -13 17 -4 12 8 -5 1 9
-15 30 -16 22 -23 36 -16 31 11 -7 -23 52 -48 82 -6 6 -7 12 -3 12 4 0 0 5
-10 11 -9 6 -15 14 -12 20 4 5 1 9 -4 9 -6 0 -11 7 -11 15 0 8 -4 15 -9 15 -5
0 -14 14 -21 30 -7 17 -16 30 -21 30 -5 0 -9 7 -9 15 0 8 -4 15 -10 15 -5 0
-10 7 -10 15 0 8 -3 15 -8 15 -4 0 -18 18 -32 40 -14 22 -28 40 -32 40 -4 0
-10 9 -13 20 -3 11 -14 20 -22 20 -9 0 -13 3 -10 6 6 6 -24 48 -71 97 -9 11
-16 23 -15 28 2 5 -3 9 -11 9 -8 0 -18 5 -22 12 -5 7 -3 8 6 3 9 -6 11 -4 6 4
-5 7 -14 10 -22 7 -8 -3 -11 0 -7 10 4 10 -2 17 -16 21 -11 3 -19 8 -18 12 2
3 -16 25 -40 48 -24 24 -43 40 -43 37 0 -2 -6 1 -14 8 -8 7 -12 16 -10 20 2 4
-5 9 -16 13 -11 4 -18 9 -16 13 2 4 -2 13 -10 20 -8 7 -14 10 -14 6 0 -4 -11
5 -25 20 -13 14 -28 26 -34 26 -5 0 -12 9 -16 20 -3 11 -9 19 -13 17 -7 -2
-37 21 -74 56 -10 9 -18 14 -18 11 0 -4 -7 -1 -15 6 -8 7 -12 17 -8 23 3 5 1
7 -5 3 -6 -3 -13 -2 -17 4 -4 6 -10 8 -14 6 -4 -3 -14 4 -21 15 -8 10 -20 19
-26 19 -6 0 -19 10 -28 23 -9 12 -14 16 -10 9 5 -11 2 -11 -15 0 -12 7 -21 16
-21 20 0 5 -7 8 -15 8 -8 0 -15 5 -15 12 0 6 -3 9 -6 5 -4 -3 -12 -1 -20 6
-33 30 -42 35 -48 30 -3 -4 -6 0 -6 7 0 7 -3 11 -6 7 -3 -3 -30 10 -59 28 -29
19 -55 31 -59 28 -3 -4 -6 -1 -6 6 0 8 -7 11 -15 7 -9 -3 -15 0 -15 10 0 10
-6 14 -15 10 -8 -3 -21 1 -29 9 -8 8 -19 15 -25 15 -6 0 -27 9 -47 21 -20 11
-43 18 -50 15 -8 -3 -13 0 -11 7 1 7 -10 13 -25 15 -16 2 -28 8 -28 13 0 5
-11 9 -24 9 -13 0 -26 5 -28 10 -2 6 -13 12 -26 13 -12 0 -22 6 -22 11 0 5 -3
6 -6 3 -4 -3 -16 0 -26 8 -11 7 -26 11 -33 9 -7 -3 -16 0 -20 5 -3 6 -11 9
-16 6 -5 -4 -9 -1 -9 6 0 7 -3 10 -6 6 -4 -3 -22 0 -41 8 -19 8 -38 13 -43 10
-4 -2 -15 2 -26 9 -10 8 -24 12 -31 9 -7 -3 -20 0 -28 7 -8 6 -19 9 -24 6 -5
-4 -12 -2 -16 3 -3 5 -14 8 -25 6 -11 -2 -26 3 -34 11 -11 10 -15 11 -19 1 -3
-9 -7 -9 -18 0 -8 7 -25 12 -37 13 -12 0 -31 0 -42 1 -11 0 -18 4 -15 9 3 4
-11 7 -31 6 -20 -1 -38 2 -40 6 -3 4 -11 5 -19 1 -9 -3 -22 0 -29 6 -10 8 -16
9 -21 1 -3 -6 -11 -8 -16 -4 -5 3 -7 8 -5 12 2 4 -19 6 -47 6 -29 -1 -59 2
-68 7 -9 4 -19 5 -23 2 -9 -9 -37 -13 -32 -5 2 4 -25 8 -60 9 -45 2 -64 -1
-64 -10 0 -9 -2 -9 -8 0 -5 8 -27 12 -60 10 -29 -1 -52 1 -52 4 0 4 -18 3 -39
-1 -21 -4 -46 -3 -55 2 -12 7 -16 5 -16 -9 0 -12 -3 -14 -8 -6 -4 6 -28 11
-53 10 -24 0 -50 3 -57 7 -7 4 -12 3 -12 -2 0 -10 -30 -9 -47 1 -6 4 -14 1
-17 -5 -5 -10 -7 -10 -12 0 -5 10 -9 10 -20 1 -11 -9 -14 -8 -14 2 0 11 -2 11
-9 0 -8 -12 -12 -12 -25 -2 -9 8 -16 9 -16 4 0 -11 -29 -11 -47 0 -6 4 -14 1
-16 -5 -4 -10 -8 -10 -15 1 -7 10 -11 10 -17 1 -6 -9 -10 -9 -16 1 -5 8 -9 9
-9 3 0 -11 -46 -11 -57 0 -3 3 -12 -2 -20 -12 -8 -9 -12 -12 -8 -5 4 9 -10 12
-55 10 -33 -1 -60 1 -60 5 0 4 -7 5 -14 2 -27 -10 -206 -9 -206 1 0 7 -3 7 -8
0 -9 -12 -52 -15 -52 -3 0 5 -8 4 -18 -1 -11 -6 -24 -6 -35 0 -13 8 -17 6 -17
-8 0 -12 -3 -14 -8 -6 -5 7 -29 11 -65 10 -31 -1 -57 1 -57 5 0 4 -7 5 -14 2
-27 -10 -206 -9 -206 1 0 7 -3 7 -8 0 -9 -12 -52 -15 -52 -3 0 5 -9 4 -20 -2
-14 -8 -20 -8 -20 0 0 6 -4 8 -10 5 -15 -9 -104 -10 -118 -1 -7 4 -12 3 -12
-1z m935 -913 c5 8 10 8 20 0 10 -8 15 -8 20 0 5 8 10 8 20 0 10 -8 15 -8 20
0 5 8 10 8 20 0 10 -8 15 -8 20 0 5 8 10 8 20 0 10 -8 15 -8 20 0 5 8 11 8 21
-1 11 -9 14 -8 14 2 0 9 3 10 8 4 8 -12 27 -13 38 -3 4 4 13 3 20 -3 7 -6 19
-7 26 -3 17 11 40 11 55 1 6 -4 14 -3 18 3 5 8 11 8 20 0 8 -7 20 -8 27 -4 17
11 40 11 55 1 6 -4 14 -3 18 3 5 8 11 8 20 0 8 -7 20 -8 27 -4 17 11 40 11 55
1 6 -4 14 -3 18 3 5 8 11 8 20 0 8 -7 20 -8 27 -4 17 11 40 11 55 1 6 -4 14
-3 18 3 5 8 11 8 21 -1 11 -9 18 -8 31 2 9 8 14 9 11 4 -4 -7 28 -11 89 -11
53 -1 99 -6 106 -13 8 -8 15 -7 25 2 12 9 16 9 19 0 3 -7 9 -13 14 -13 6 0 7
5 3 11 -4 7 1 7 16 -1 12 -6 28 -9 36 -6 8 3 14 0 15 -7 0 -9 2 -8 6 1 4 10 8
10 19 1 7 -6 20 -9 29 -6 8 4 17 2 20 -4 4 -5 11 -7 16 -4 5 4 9 0 9 -7 0 -9
3 -9 10 2 7 11 10 12 10 2 0 -9 7 -11 20 -7 13 4 20 2 20 -6 0 -7 3 -9 7 -6 3
4 12 2 20 -4 10 -9 13 -8 13 1 0 10 4 9 16 -1 9 -7 24 -14 35 -16 51 -8 61
-11 139 -45 25 -11 50 -21 55 -23 45 -14 55 -19 55 -27 0 -5 4 -7 9 -4 12 8
42 -4 36 -14 -3 -5 3 -7 12 -6 10 2 24 -3 31 -11 8 -7 18 -11 23 -8 5 4 9 2 9
-2 0 -5 18 -17 40 -27 22 -10 40 -22 40 -27 0 -5 5 -9 10 -9 19 0 100 -56 93
-64 -5 -4 -3 -7 2 -6 16 3 55 -12 55 -21 0 -5 4 -9 10 -9 5 0 20 -10 33 -22
63 -59 127 -116 127 -113 0 2 29 -25 65 -60 36 -36 65 -69 65 -75 0 -5 7 -10
16 -10 8 0 12 -4 9 -10 -3 -5 2 -10 11 -10 10 0 15 -3 11 -6 -3 -4 9 -21 27
-39 19 -18 37 -42 41 -54 3 -11 11 -21 16 -21 6 0 8 -4 5 -9 -3 -5 1 -11 9
-15 8 -3 15 -12 15 -20 0 -8 3 -16 8 -18 13 -6 52 -67 52 -82 0 -8 9 -21 20
-29 11 -8 18 -16 15 -19 -3 -3 1 -11 10 -18 8 -7 15 -21 15 -31 0 -11 5 -19
11 -19 5 0 7 -4 4 -10 -3 -5 -1 -10 5 -10 6 0 8 -4 5 -10 -3 -5 -3 -10 2 -10
4 0 14 -15 22 -32 7 -18 20 -46 27 -62 8 -16 11 -32 8 -37 -3 -5 0 -9 5 -9 6
0 11 -7 11 -16 0 -8 4 -13 9 -9 6 3 8 -4 6 -15 -2 -11 1 -20 6 -20 6 0 7 -5 4
-10 -4 -6 -2 -17 4 -24 7 -8 10 -20 9 -27 -2 -8 2 -13 7 -12 6 1 10 -14 10
-33 -1 -19 4 -39 12 -45 7 -6 13 -24 13 -40 0 -16 5 -29 11 -29 8 0 8 -5 -1
-15 -9 -10 -9 -15 -1 -15 6 0 11 -15 11 -33 0 -18 6 -39 13 -46 10 -11 9 -12
-3 -6 -9 5 -7 -1 5 -15 12 -14 14 -20 5 -15 -12 7 -13 6 -4 -6 6 -8 10 -35 9
-61 -1 -26 3 -44 8 -41 5 3 7 -5 6 -18 -2 -13 0 -30 4 -36 5 -8 3 -13 -4 -13
-8 0 -8 -4 -1 -12 5 -7 8 -28 6 -46 -3 -23 0 -31 8 -26 6 4 8 3 4 -4 -10 -17
-14 -72 -4 -72 5 0 4 -9 -2 -19 -7 -14 -6 -21 3 -25 9 -5 9 -7 -2 -12 -11 -5
-11 -8 0 -15 12 -8 11 -11 -1 -19 -11 -7 -11 -10 -2 -10 9 0 10 -5 3 -18 -5
-10 -6 -24 -1 -32 4 -7 4 -24 0 -36 -6 -15 -5 -26 1 -30 5 -3 6 -11 2 -17 -4
-7 -8 -32 -8 -57 0 -25 -4 -48 -9 -52 -6 -4 -5 -12 2 -21 10 -11 9 -17 -1 -25
-8 -7 -13 -30 -12 -57 0 -25 -4 -45 -9 -45 -5 0 -6 -3 -3 -7 4 -3 2 -12 -4
-20 -9 -10 -8 -13 2 -13 11 0 11 -2 1 -9 -7 -4 -12 -12 -11 -17 4 -21 -2 -45
-9 -40 -4 2 -7 -8 -6 -22 1 -15 -3 -33 -9 -39 -5 -7 -6 -13 -2 -13 4 0 1 -8
-6 -17 -12 -14 -12 -16 1 -9 12 6 11 4 -1 -6 -9 -7 -14 -18 -12 -25 2 -6 -5
-30 -16 -52 -10 -23 -14 -38 -8 -34 8 5 8 2 0 -9 -7 -8 -10 -18 -6 -21 3 -4 1
-7 -5 -7 -7 0 -12 -9 -12 -20 0 -11 -5 -20 -12 -20 -6 0 -8 -3 -5 -7 4 -3 1
-13 -6 -21 -10 -13 -9 -14 3 -7 11 6 10 3 -2 -12 -10 -11 -18 -27 -18 -36 0
-9 -5 -19 -11 -22 -6 -4 -8 -13 -5 -21 3 -7 -4 -18 -15 -24 -11 -6 -17 -15
-14 -20 3 -4 -2 -15 -10 -24 -9 -8 -16 -18 -15 -21 1 -21 -2 -25 -12 -19 -7 4
-10 3 -6 -1 8 -9 -37 -94 -56 -107 -6 -4 -7 -8 -3 -8 4 0 2 -6 -5 -14 -7 -8
-17 -11 -23 -8 -5 2 -5 -1 2 -8 9 -10 5 -20 -23 -46 -19 -19 -34 -36 -34 -39
0 -13 -38 -64 -43 -58 -4 3 -7 -1 -7 -10 0 -9 -4 -17 -10 -17 -5 0 -10 -7 -10
-16 0 -8 -4 -12 -10 -9 -5 3 -10 1 -10 -4 0 -6 -25 -36 -55 -66 -30 -30 -55
-59 -55 -65 0 -5 -3 -9 -7 -8 -5 2 -30 -19 -56 -46 -27 -26 -51 -45 -54 -42
-3 2 -16 -7 -30 -22 -14 -15 -29 -26 -34 -25 -5 2 -8 0 -6 -5 1 -4 -1 -8 -6
-9 -4 -2 -17 -12 -29 -23 -12 -11 -28 -20 -35 -20 -8 0 -11 -5 -8 -10 5 -9
-16 -15 -38 -11 -5 1 -6 -3 -2 -9 4 -6 -7 -15 -24 -21 -17 -6 -31 -15 -31 -20
0 -5 -9 -9 -20 -9 -11 0 -20 -4 -20 -8 0 -5 -21 -20 -47 -33 -27 -13 -49 -27
-51 -31 -2 -5 -10 -8 -17 -8 -11 0 -50 -17 -119 -52 -14 -7 -16 -6 -11 4 3 7
-1 4 -9 -6 -9 -11 -16 -17 -16 -14 0 3 -30 -4 -67 -17 -37 -13 -71 -22 -75
-19 -4 3 -8 0 -8 -6 0 -7 -7 -10 -15 -6 -8 3 -15 1 -15 -5 0 -6 -4 -8 -9 -4
-5 3 -12 1 -16 -5 -4 -6 -11 -8 -16 -4 -5 3 -23 -1 -39 -10 -19 -9 -30 -10
-30 -4 0 6 -9 3 -19 -6 -13 -12 -21 -14 -26 -6 -5 8 -10 8 -20 0 -8 -6 -39
-12 -69 -13 -31 -1 -56 -5 -56 -9 0 -4 -6 -5 -14 -2 -8 3 -24 0 -36 -6 -17 -9
-21 -9 -15 0 5 9 2 10 -11 3 -11 -5 -56 -9 -101 -9 -49 1 -83 -3 -83 -9 0 -7
-3 -7 -8 0 -9 12 -42 16 -42 5 0 -4 -16 -4 -34 0 -19 4 -37 5 -40 2 -8 -8 -81
-6 -94 2 -7 4 -12 4 -12 -1 0 -10 -93 -8 -109 1 -6 4 -11 4 -11 -1 0 -9 -82
-8 -105 1 -8 3 -15 0 -15 -7 0 -8 -4 -6 -10 3 -5 8 -10 11 -10 5 0 -11 -71
-12 -89 -1 -6 4 -11 4 -11 -1 0 -9 -82 -8 -105 1 -8 3 -15 0 -15 -7 0 -8 -4
-6 -10 3 -5 8 -10 11 -10 5 0 -8 -37 -10 -93 -6 -4 1 -7 62 -6 136 1 74 0 137
-2 139 -2 2 -2 52 1 110 3 67 1 106 -5 106 -7 0 -7 3 0 8 6 4 10 39 10 77 0
39 -4 73 -10 77 -7 5 -7 8 0 8 8 0 12 127 5 175 -1 6 -1 44 0 85 2 91 2 142 0
155 -1 6 -1 44 0 85 1 41 2 92 3 112 0 21 -1 40 -4 42 -2 3 -2 34 1 70 3 42 2
66 -5 66 -7 0 -7 3 0 8 6 4 10 39 10 77 0 39 -4 73 -10 77 -7 5 -7 8 0 8 8 0
12 196 5 255 -1 6 0 62 0 125 2 145 2 182 0 195 -1 6 -1 44 0 85 2 91 2 142 0
155 -1 6 -1 44 0 85 2 91 2 142 0 155 -1 6 -1 44 0 85 2 96 2 142 0 155 -1 6
-2 13 -1 17 2 13 3 133 1 143 -1 6 -1 44 0 85 2 91 2 142 0 155 -1 6 -1 44 0
85 1 41 2 92 3 112 0 21 -1 40 -4 42 -2 3 -2 34 1 70 3 42 2 66 -5 66 -7 0 -7
3 0 8 6 4 10 39 10 77 0 39 -4 73 -10 77 -7 5 -7 8 0 8 8 0 12 130 5 175 -1 6
-1 35 0 65 2 61 15 87 35 70 9 -8 15 -8 20 0z"/>
<path d="M5440 6113 c0 -6 -13 -10 -32 -9 -18 1 -39 -2 -45 -7 -8 -6 -13 -5
-13 2 0 12 -27 10 -47 -2 -8 -5 -13 -3 -13 3 0 13 -32 9 -42 -5 -5 -7 -11 -7
-15 0 -9 12 -112 13 -131 2 -7 -5 -12 -3 -12 3 0 13 -32 9 -42 -5 -5 -6 -8 -5
-8 4 0 11 -3 11 -15 1 -11 -9 -15 -9 -15 -1 0 14 -32 11 -42 -4 -5 -6 -8 -5
-8 4 0 11 -3 11 -15 1 -11 -9 -15 -9 -15 -1 0 14 -32 11 -42 -4 -5 -6 -8 -5
-8 4 0 11 -3 11 -15 1 -11 -9 -15 -9 -15 -1 0 14 -32 11 -42 -4 -5 -6 -8 -5
-8 4 0 11 -3 11 -15 1 -11 -9 -15 -9 -15 -1 0 14 -32 11 -42 -4 -5 -6 -8 -5
-8 4 0 11 -3 11 -15 1 -11 -9 -15 -9 -15 -1 0 14 -32 11 -42 -4 -5 -6 -8 -5
-8 4 0 11 -3 11 -15 1 -11 -9 -15 -9 -15 -1 0 14 -32 11 -42 -4 -5 -6 -8 -5
-8 4 0 11 -3 11 -15 1 -11 -9 -15 -9 -15 -1 0 14 -32 11 -42 -4 -5 -6 -8 -5
-8 4 0 11 -3 11 -15 1 -11 -9 -15 -9 -15 -1 0 14 -32 11 -42 -4 -5 -6 -8 -5
-8 4 0 11 -3 11 -15 1 -11 -9 -15 -9 -15 -1 0 14 -32 11 -42 -4 -5 -6 -8 -5
-8 4 0 11 -3 11 -15 1 -11 -9 -15 -9 -15 -1 0 14 -32 11 -42 -4 -5 -6 -8 -5
-8 4 0 11 -3 11 -15 1 -11 -9 -15 -9 -15 -1 0 14 -32 11 -42 -4 -5 -6 -8 -5
-8 4 0 11 -3 11 -15 1 -11 -9 -15 -9 -15 -1 0 14 -32 11 -42 -4 -5 -6 -8 -5
-8 4 0 11 -3 11 -15 1 -11 -9 -15 -9 -15 -1 0 14 -32 11 -42 -4 -5 -6 -8 -5
-8 4 0 11 -3 11 -15 1 -11 -9 -15 -9 -15 -1 0 14 -32 11 -42 -4 -5 -6 -8 -5
-8 4 0 11 -3 11 -15 1 -11 -9 -15 -9 -15 -1 0 14 -31 11 -42 -4 -5 -6 -11 -6
-16 2 -8 13 -29 13 -49 0 -8 -5 -13 -3 -13 3 0 13 -32 9 -42 -5 -5 -7 -11 -7
-15 0 -9 12 -93 12 -111 1 -7 -4 -12 -2 -12 3 0 12 -27 10 -47 -2 -8 -5 -13
-3 -13 3 0 13 -32 9 -42 -5 -5 -7 -11 -7 -15 0 -9 12 -93 12 -111 1 -7 -4 -12
-2 -12 3 0 12 -27 10 -47 -2 -8 -5 -13 -3 -13 3 0 13 -32 9 -42 -5 -5 -7 -11
-7 -15 0 -9 12 -93 12 -111 1 -7 -4 -12 -2 -12 3 0 12 -27 10 -47 -2 -8 -5
-13 -3 -13 3 0 13 -32 9 -42 -5 -5 -7 -11 -7 -15 0 -9 12 -93 12 -111 1 -7 -4
-12 -2 -12 3 0 12 -27 10 -47 -2 -8 -5 -13 -3 -13 3 0 13 -32 9 -42 -5 -5 -7
-11 -7 -15 0 -9 12 -93 12 -111 1 -7 -4 -12 -2 -12 3 0 12 -27 10 -47 -2 -8
-5 -13 -3 -13 3 0 13 -32 9 -42 -5 -5 -7 -11 -7 -15 0 -9 12 -93 12 -111 1 -7
-4 -12 -2 -12 3 0 12 -27 10 -47 -2 -8 -5 -13 -3 -13 3 0 13 -32 9 -42 -5 -5
-7 -11 -7 -15 0 -9 12 -93 12 -111 1 -7 -4 -12 -2 -12 3 0 12 -27 10 -47 -2
-8 -5 -13 -3 -13 3 0 13 -32 9 -42 -5 -5 -7 -11 -7 -15 0 -9 12 -93 12 -111 1
-7 -4 -12 -2 -12 3 0 12 -27 10 -48 -2 -7 -5 -12 -3 -12 3 0 13 -32 9 -42 -5
-5 -7 -11 -7 -15 0 -9 12 -93 12 -111 1 -7 -4 -12 -2 -12 3 0 12 -27 10 -48
-2 -7 -5 -12 -3 -12 3 0 13 -32 9 -42 -5 -5 -7 -11 -7 -15 0 -9 12 -93 12
-111 1 -7 -4 -12 -2 -12 3 0 12 -27 10 -47 -2 -8 -5 -13 -3 -13 3 0 13 -32 9
-42 -5 -5 -6 -11 -6 -16 2 -8 13 -29 13 -49 0 -8 -5 -13 -3 -13 3 0 13 -32 9
-42 -5 -5 -6 -8 -5 -8 4 0 11 -3 11 -15 1 -11 -9 -15 -9 -15 -1 0 14 -32 11
-42 -4 -5 -6 -8 -5 -8 4 0 11 -3 11 -15 1 -11 -9 -15 -9 -15 -1 0 14 -32 11
-42 -4 -5 -6 -8 -5 -8 4 0 11 -3 11 -15 1 -11 -9 -15 -9 -15 -1 0 14 -32 11
-42 -4 -5 -6 -8 -5 -8 4 0 11 -3 11 -15 1 -11 -9 -15 -9 -15 -1 0 14 -32 11
-42 -4 -5 -6 -8 -5 -8 4 0 11 -3 11 -15 1 -11 -9 -15 -9 -15 -1 0 14 -32 11
-42 -4 -5 -6 -8 -5 -8 4 0 11 -3 11 -15 1 -11 -9 -15 -9 -15 -1 0 14 -32 11
-42 -4 -5 -6 -8 -5 -8 4 0 11 -3 11 -15 1 -11 -9 -15 -9 -15 -1 0 14 -32 11
-42 -4 -5 -6 -8 -5 -8 4 0 11 -3 11 -15 1 -11 -9 -15 -9 -15 -1 0 14 -32 11
-42 -4 -5 -6 -8 -5 -8 4 0 11 -3 11 -15 1 -11 -9 -15 -9 -15 -1 0 14 -32 11
-42 -4 -5 -6 -8 -5 -8 4 0 11 -3 11 -15 1 -11 -9 -15 -9 -15 -1 0 14 -32 11
-42 -4 -5 -6 -8 -5 -8 4 0 11 -3 11 -15 1 -11 -9 -15 -9 -15 -1 0 14 -32 11
-42 -4 -5 -6 -8 -5 -8 4 0 11 -3 11 -15 1 -11 -9 -15 -9 -15 -1 0 14 -32 11
-42 -4 -5 -6 -8 -5 -8 4 0 11 -3 11 -15 1 -11 -9 -15 -9 -15 -1 0 14 -32 11
-42 -4 -5 -6 -8 -5 -8 4 0 11 -3 11 -15 1 -11 -9 -15 -9 -15 -1 0 14 -32 11
-42 -4 -5 -6 -8 -5 -8 4 0 11 -3 11 -15 1 -11 -9 -15 -9 -15 -1 0 14 -32 11
-42 -4 -13 -18 -10 -923 4 -931 7 -5 9 -2 4 7 -4 8 0 5 8 -5 16 -20 16 -20 17
0 0 11 3 14 6 6 4 -9 8 -10 18 -2 9 8 15 8 20 0 4 -6 12 -7 24 -1 10 6 23 6
32 0 20 -13 31 -11 22 4 -4 6 6 4 21 -7 16 -10 25 -12 21 -5 -6 9 -3 11 8 6
10 -4 17 -1 17 5 0 7 7 3 15 -8 15 -19 15 -19 8 1 -6 17 -4 18 9 8 8 -7 18
-10 21 -6 4 3 14 0 24 -8 9 -8 14 -9 10 -3 -8 14 26 25 43 14 7 -4 26 -4 41 0
18 6 31 5 35 -2 5 -7 2 -8 -6 -3 -9 5 -11 4 -6 -4 5 -8 12 -9 20 -2 6 5 28 8
49 6 20 -1 35 0 33 3 -2 4 9 7 26 6 16 0 34 -7 39 -15 7 -11 9 -10 10 6 0 11
3 14 6 7 4 -10 8 -10 21 0 12 10 14 10 8 1 -4 -7 -2 -13 3 -13 6 0 11 5 11 11
0 5 5 7 10 4 6 -4 7 -12 3 -18 -4 -7 0 -6 10 2 14 11 20 11 34 0 11 -10 14
-10 9 -1 -5 8 0 12 14 12 12 0 18 -4 15 -10 -3 -6 1 -7 9 -4 9 3 14 9 12 13
-4 6 30 5 102 -2 17 -2 32 1 32 6 0 4 5 5 10 2 6 -4 7 -12 3 -18 -4 -7 0 -7
10 1 9 8 21 11 26 8 5 -4 13 -1 17 5 5 9 11 7 21 -6 13 -18 13 -18 14 1 0 11
3 14 6 6 4 -9 8 -10 18 -2 9 8 15 8 20 0 4 -6 12 -7 24 -1 10 6 23 6 32 0 20
-13 31 -11 22 4 -4 6 6 4 21 -7 16 -10 25 -12 21 -5 -6 9 -3 11 8 6 10 -4 17
-1 17 5 0 7 7 3 15 -8 15 -19 15 -19 8 1 -6 17 -4 18 9 8 8 -7 18 -10 21 -6 4
3 14 0 24 -8 14 -12 16 -12 8 0 -6 11 -2 13 24 8 18 -4 30 -3 27 1 -2 4 9 7
26 6 16 0 34 -7 39 -15 7 -11 9 -10 9 6 0 15 2 17 9 6 6 -9 10 -10 16 -2 5 9
10 9 20 1 10 -8 14 -7 18 2 3 8 6 5 6 -6 1 -20 1 -20 17 0 8 10 13 14 10 8 -3
-7 3 -14 15 -17 17 -5 18 -3 8 9 -10 12 -9 13 7 8 10 -4 25 -12 33 -18 12 -9
13 -8 8 6 -4 11 -2 16 6 13 31 -9 78 -14 73 -7 -2 4 9 7 26 6 16 0 34 -7 39
-15 7 -11 9 -10 9 6 0 15 2 17 9 6 6 -9 10 -10 16 -2 5 9 10 9 20 1 10 -8 14
-7 18 2 3 8 6 5 6 -6 1 -20 1 -20 17 0 8 10 13 14 10 8 -3 -7 3 -14 15 -17 17
-5 18 -3 8 9 -10 12 -9 13 7 8 10 -4 25 -12 33 -18 12 -9 14 -8 9 4 -7 20 50
19 63 -1 7 -11 9 -10 10 6 0 11 3 14 6 7 4 -9 8 -10 18 -2 9 8 15 8 20 0 4 -6
12 -7 24 -1 10 6 23 6 32 0 20 -13 31 -11 22 4 -4 6 6 4 21 -7 16 -10 25 -12
21 -5 -6 9 -3 11 8 6 10 -4 17 -1 17 5 0 7 7 3 15 -8 15 -19 15 -19 8 1 -6 17
-4 18 9 8 8 -7 18 -10 21 -6 4 3 14 0 24 -8 9 -8 14 -9 10 -3 -8 14 26 25 43
14 7 -4 26 -4 41 0 18 6 31 5 35 -2 5 -7 2 -8 -6 -3 -9 5 -11 4 -6 -4 5 -8 12
-9 20 -2 6 5 28 8 49 6 20 -1 35 0 33 3 -2 4 9 7 26 6 16 0 34 -7 39 -15 7
-11 9 -10 10 6 0 11 3 14 6 7 4 -10 8 -10 21 0 12 10 14 10 8 1 -4 -7 -2 -13
3 -13 6 0 11 5 11 11 0 5 5 7 10 4 6 -4 7 -12 3 -18 -4 -7 0 -6 10 2 14 11 20
11 34 0 11 -10 14 -10 9 -1 -5 8 0 12 14 12 12 0 18 -4 15 -10 -3 -6 1 -7 9
-4 9 3 14 9 12 13 -4 6 30 5 102 -2 17 -2 32 1 32 6 0 4 5 5 10 2 6 -4 7 -12
3 -18 -4 -7 0 -7 10 1 9 8 21 11 26 8 5 -4 13 -1 17 5 5 9 11 7 21 -6 13 -18
13 -18 14 1 0 11 3 14 6 6 4 -9 8 -10 18 -2 9 8 15 8 20 0 4 -6 12 -7 24 -1
10 6 23 6 32 0 20 -13 31 -11 22 4 -4 6 6 4 21 -7 16 -10 25 -12 21 -5 -6 9
-3 11 8 6 10 -4 17 -1 17 5 0 7 7 3 15 -8 15 -19 15 -19 8 1 -6 17 -4 18 9 8
8 -7 18 -10 21 -6 4 3 14 0 24 -8 14 -12 16 -12 8 0 -6 11 -2 13 24 8 18 -4
30 -3 27 1 -2 4 9 7 26 6 16 0 34 -7 39 -15 7 -11 9 -10 9 6 0 15 2 17 9 6 6
-9 10 -10 16 -2 5 9 10 9 20 1 10 -8 14 -7 18 2 3 8 6 5 6 -6 1 -20 1 -20 17
0 8 10 13 14 10 8 -3 -7 3 -14 15 -17 17 -5 18 -3 8 9 -10 12 -9 13 7 8 10 -4
25 -12 33 -18 12 -9 13 -8 8 6 -4 11 -2 16 6 13 31 -9 78 -14 73 -7 -2 4 9 7
26 6 16 0 34 -7 39 -15 7 -11 9 -10 9 6 0 15 2 17 9 6 6 -9 10 -10 16 -2 5 9
10 9 20 1 10 -8 14 -7 18 2 3 8 6 5 6 -6 1 -20 1 -20 17 0 8 10 13 14 10 8 -3
-7 3 -14 15 -17 17 -5 18 -3 8 9 -10 12 -9 13 7 8 10 -4 25 -12 33 -18 12 -9
14 -8 9 4 -7 20 50 19 63 -1 7 -11 9 -10 10 6 0 11 3 14 6 7 4 -9 8 -10 18 -2
9 8 15 8 20 0 4 -6 12 -7 24 -1 10 6 23 6 32 0 20 -13 31 -11 22 4 -4 6 6 4
21 -7 16 -10 25 -12 21 -5 -6 9 -3 11 8 6 10 -4 17 -1 17 5 0 7 7 3 15 -8 15
-19 15 -19 8 1 -6 17 -4 18 9 8 8 -7 18 -10 21 -6 4 3 14 0 24 -8 11 -9 14
-10 9 -1 -5 8 -1 12 11 13 10 0 28 2 40 3 19 2 21 0 10 -12 -10 -13 -7 -12 19
1 28 15 33 15 54 0 13 -9 20 -11 16 -5 -5 8 2 12 19 12 15 0 24 -4 20 -10 -3
-6 1 -7 9 -4 9 3 14 10 11 14 -3 5 4 6 15 3 33 -9 32 -19 -5 -49 -19 -15 -35
-34 -35 -41 0 -7 -6 -12 -12 -10 -7 1 -12 -4 -11 -10 2 -7 -1 -12 -5 -10 -4 1
-44 -35 -89 -80 -45 -44 -84 -78 -88 -75 -4 4 -5 0 -3 -8 2 -8 -3 -14 -10 -12
-8 1 -11 -1 -8 -6 6 -11 -30 -43 -39 -34 -4 4 -5 2 -3 -4 4 -13 -168 -185
-177 -176 -4 4 -5 0 -3 -8 2 -8 -3 -14 -10 -12 -8 1 -11 -1 -8 -6 6 -11 -30
-43 -39 -34 -4 4 -5 2 -3 -3 4 -14 -78 -96 -87 -87 -3 4 -5 2 -3 -4 4 -14 -62
-80 -76 -76 -6 2 -8 1 -4 -3 9 -9 -43 -61 -57 -57 -5 2 -7 1 -3 -3 9 -9 -23
-45 -34 -39 -5 3 -7 0 -6 -8 2 -7 -4 -12 -12 -10 -8 2 -12 1 -8 -3 9 -9 -92
-111 -106 -107 -6 2 -8 1 -4 -3 8 -8 -42 -61 -54 -57 -4 1 -7 -4 -6 -10 2 -7
-3 -12 -10 -10 -6 1 -11 -2 -10 -6 4 -10 -254 -268 -264 -264 -5 1 -7 -4 -5
-11 1 -6 -5 -11 -13 -9 -8 2 -12 1 -9 -3 4 -3 -30 -43 -75 -88 -44 -44 -80
-85 -79 -89 2 -4 0 -7 -5 -7 -4 1 -14 1 -22 0 -13 -1 -13 -2 0 -11 10 -7 11
-10 2 -10 -6 0 -49 -37 -93 -82 -45 -46 -86 -82 -90 -81 -5 2 -8 -3 -6 -10 1
-6 -5 -11 -13 -9 -8 2 -12 1 -8 -3 8 -8 -134 -154 -145 -148 -4 3 -6 -1 -5 -9
2 -7 -3 -12 -9 -11 -7 2 -12 0 -11 -5 4 -11 -104 -117 -116 -114 -6 2 -8 0 -4
-4 4 -4 -13 -26 -37 -50 -25 -23 -45 -48 -45 -55 0 -7 -3 -10 -6 -6 -3 3 -17
-6 -31 -21 -14 -15 -30 -26 -37 -24 -6 2 -8 1 -4 -3 8 -8 -224 -244 -235 -238
-4 3 -6 1 -5 -4 4 -10 -194 -209 -204 -205 -5 1 -7 -1 -6 -6 4 -11 -35 -52
-44 -46 -5 3 -7 0 -6 -8 2 -7 -4 -12 -12 -10 -8 2 -12 0 -8 -3 4 -4 -12 -26
-35 -48 -23 -22 -41 -44 -40 -49 2 -4 0 -7 -5 -7 -4 1 -14 1 -22 0 -13 -1 -13
-2 0 -11 10 -7 11 -10 2 -10 -7 0 -27 -16 -45 -35 -17 -19 -38 -35 -44 -35 -7
0 -12 -4 -10 -8 3 -12 -65 -78 -77 -74 -6 2 -8 1 -4 -3 8 -9 -51 -71 -64 -67
-5 1 -7 -2 -3 -8 3 -5 1 -10 -4 -10 -6 0 -11 -7 -11 -16 0 -8 -4 -13 -9 -10
-5 3 -12 -1 -15 -10 -3 -8 -11 -12 -17 -8 -7 4 -10 3 -7 -2 7 -11 -17 -35 -27
-26 -4 4 -5 2 -3 -3 4 -14 -120 -142 -735 -757 l-527 -529 0 -369 0 -370 283
0 283 0 199 200 c110 109 201 204 203 210 2 5 9 10 15 11 7 0 35 27 62 59 28
32 53 59 57 59 10 2 98 93 98 103 0 4 4 8 9 8 4 0 110 101 234 225 125 124
232 225 239 225 9 0 8 3 -2 10 -10 6 -11 10 -2 10 6 0 76 64 155 143 78 78
146 141 152 139 5 -2 7 0 3 4 -4 4 16 29 45 57 28 27 51 55 49 61 -2 6 -1 8 3
4 8 -8 61 42 58 54 -2 4 1 7 6 5 11 -3 147 135 144 145 -2 5 1 7 5 5 5 -1 30
19 56 46 26 26 52 47 57 47 5 0 9 7 9 15 0 8 4 15 9 15 5 0 12 9 16 20 3 11
10 19 14 17 5 -1 58 48 118 110 61 62 113 109 117 106 3 -4 6 -1 6 5 0 7 43
54 95 106 52 51 95 99 95 105 0 6 4 10 8 8 4 -1 57 47 118 108 60 60 112 109
116 107 5 -1 7 1 5 6 -1 4 35 44 80 88 45 45 79 85 75 89 -4 5 -2 6 4 2 11 -6
71 52 66 66 -1 4 1 6 6 3 4 -2 16 6 26 20 11 13 25 24 32 24 8 0 13 6 11 13
-1 6 4 11 10 10 7 -2 12 1 10 5 -1 5 16 26 38 46 22 21 39 44 37 50 -2 6 -1 8
3 4 9 -9 45 23 39 34 -3 5 -1 7 3 6 13 -4 203 189 195 197 -4 4 -2 5 4 3 7 -1
39 25 73 60 34 34 66 62 73 62 6 0 9 3 5 6 -3 4 24 36 61 72 37 35 66 69 64
74 -1 5 2 7 8 3 5 -3 10 -1 10 4 0 6 7 11 15 11 8 0 14 4 13 8 -2 5 15 26 37
46 22 21 38 44 37 50 -2 6 -1 8 3 4 9 -9 45 23 39 34 -3 5 -1 7 4 6 5 -2 41
29 80 69 38 40 73 69 77 65 5 -4 5 1 2 11 -4 10 -3 16 2 13 10 -7 52 40 43 49
-4 4 -2 5 4 3 6 -2 45 31 85 72 41 41 77 74 81 72 5 -1 7 4 6 10 -2 7 3 12 10
10 6 -1 12 2 12 8 0 13 293 305 303 302 7 -2 11 13 8 31 0 4 3 6 8 5 4 -2 33
22 63 53 64 65 92 81 78 44 -6 -16 -5 -25 3 -29 9 -3 9 -5 -1 -5 -10 -1 -10
-6 -1 -22 6 -12 7 -19 2 -16 -4 3 -8 -17 -8 -44 0 -27 3 -49 7 -49 4 0 5 -6 3
-12 -10 -30 -13 -68 -5 -68 5 0 7 -6 5 -12 -10 -30 -13 -68 -5 -68 5 0 7 -6 5
-12 -10 -30 -13 -68 -5 -68 5 0 7 -6 5 -12 -10 -30 -13 -68 -5 -68 5 0 7 -6 5
-12 -10 -30 -13 -68 -5 -68 5 0 7 -6 5 -12 -10 -30 -13 -68 -5 -68 5 0 7 -6 5
-12 -10 -30 -13 -68 -5 -68 5 0 7 -6 5 -12 -10 -30 -13 -68 -5 -68 5 0 7 -6 5
-12 -10 -30 -13 -68 -5 -68 5 0 7 -6 5 -12 -10 -30 -13 -68 -5 -68 5 0 7 -6 5
-12 -10 -30 -13 -68 -5 -68 5 0 7 -6 5 -12 -10 -30 -13 -68 -5 -68 5 0 7 -6 5
-12 -10 -30 -13 -68 -5 -68 5 0 7 -6 5 -12 -10 -30 -13 -68 -5 -68 5 0 7 -6 5
-12 -10 -30 -13 -68 -5 -68 5 0 7 -6 5 -12 -10 -30 -13 -68 -5 -68 5 0 7 -6 5
-12 -10 -30 -13 -68 -5 -68 5 0 7 -6 5 -12 -10 -30 -13 -68 -5 -68 5 0 7 -6 5
-12 -10 -30 -13 -68 -5 -68 5 0 7 -6 5 -12 -10 -30 -13 -68 -5 -68 5 0 7 -6 5
-12 -10 -30 -13 -68 -5 -68 5 0 7 -6 5 -12 -10 -30 -13 -68 -5 -68 5 0 7 -6 5
-13 -10 -29 -13 -67 -5 -67 5 0 7 -6 5 -12 -10 -30 -13 -68 -5 -68 5 0 7 -6 5
-12 -10 -30 -13 -68 -5 -68 5 0 7 -6 5 -12 -10 -30 -13 -68 -5 -68 5 0 7 -6 5
-13 -10 -29 -13 -67 -5 -67 5 0 7 -6 5 -12 -10 -30 -13 -68 -5 -68 5 0 7 -6 5
-12 -10 -30 -13 -68 -5 -68 5 0 7 -6 5 -12 -10 -30 -13 -68 -5 -68 5 0 7 -6 5
-13 -10 -29 -13 -67 -5 -67 5 0 7 -6 5 -12 -10 -30 -13 -68 -5 -68 5 0 7 -6 5
-12 -10 -30 -13 -68 -5 -68 5 0 7 -6 5 -12 -10 -30 -13 -68 -5 -68 5 0 7 -6 5
-13 -10 -29 -13 -67 -5 -67 5 0 7 -6 5 -12 -10 -30 -13 -68 -5 -68 5 0 7 -6 5
-12 -10 -30 -13 -68 -5 -68 5 0 7 -6 5 -12 -10 -30 -13 -68 -5 -68 5 0 7 -6 5
-12 -10 -30 -13 -68 -5 -68 5 0 7 -6 5 -12 -10 -30 -13 -68 -5 -68 5 0 7 -6 5
-13 -10 -29 -13 -67 -5 -67 5 0 7 -6 5 -12 -10 -30 -13 -68 -5 -68 5 0 7 -6 5
-12 -10 -30 -13 -68 -5 -68 5 0 7 -6 5 -12 -10 -30 -13 -68 -5 -68 5 0 7 -6 5
-12 -10 -30 -13 -68 -5 -68 5 0 7 -6 5 -13 -10 -29 -13 -67 -5 -67 5 0 7 -6 5
-12 -10 -30 -13 -68 -5 -68 5 0 7 -6 5 -12 -10 -30 -13 -68 -5 -68 5 0 7 -6 5
-12 -10 -30 -13 -68 -5 -68 5 0 7 -6 5 -12 -10 -30 -13 -68 -5 -68 5 0 7 -6 5
-12 -10 -30 -13 -68 -5 -68 5 0 7 -6 5 -12 -10 -30 -13 -68 -5 -68 5 0 7 -6 5
-12 -10 -30 -13 -68 -5 -68 6 0 6 -10 1 -22 -18 -49 -29 -48 464 -48 398 0
464 2 468 15 4 8 2 17 -4 21 -7 4 -7 10 0 18 7 9 7 17 -2 26 -9 10 -9 11 1 6
7 -5 12 -1 12 9 0 10 -5 13 -12 9 -10 -6 -10 -5 -2 7 7 8 10 30 9 49 -2 19 2
41 8 49 9 11 9 13 1 8 -7 -4 -14 3 -17 19 -3 16 1 28 9 31 8 3 11 9 8 14 -3 5
-11 6 -17 2 -9 -5 -9 -3 0 8 10 12 10 18 0 29 -9 10 -9 11 1 6 7 -5 12 -1 12
9 0 10 -5 13 -12 9 -10 -6 -10 -5 -2 7 7 8 10 30 9 49 -2 19 2 41 8 49 9 11 9
13 1 8 -7 -4 -14 3 -17 19 -3 16 1 28 10 31 11 4 10 8 -4 20 -10 8 -12 12 -5
8 9 -5 11 0 8 19 -3 14 -8 31 -12 37 -4 7 -3 9 3 6 11 -7 9 85 -2 104 -5 7 -4
10 1 6 11 -7 10 135 -1 153 -5 8 -4 11 1 7 11 -7 10 135 -1 153 -5 8 -4 11 1
7 11 -7 10 135 -1 153 -5 8 -4 11 2 7 12 -7 9 65 -3 84 -4 8 -3 9 4 5 13 -8
12 20 -1 41 -4 6 -3 15 3 18 8 5 7 12 -2 23 -10 12 -10 14 0 8 7 -4 12 -1 12
9 0 10 -5 13 -12 9 -10 -6 -10 -4 -2 7 6 8 10 30 8 49 -1 19 3 41 9 49 9 12 9
13 0 7 -9 -5 -13 2 -13 23 0 17 5 31 11 31 5 0 7 5 4 10 -4 6 -12 7 -18 3 -9
-5 -9 -3 0 8 10 12 10 18 0 29 -9 10 -9 11 1 6 7 -5 12 -1 12 9 0 10 -5 13
-12 9 -10 -6 -10 -5 -2 7 7 8 10 30 9 49 -2 19 2 41 8 49 9 11 9 13 1 8 -7 -4
-14 3 -17 19 -3 16 1 28 10 31 11 4 10 8 -4 20 -10 8 -12 12 -5 8 9 -5 11 0 8
19 -3 14 -8 31 -12 37 -4 7 -3 9 3 6 11 -7 9 85 -2 104 -5 7 -4 10 1 6 11 -7
10 135 -1 153 -5 8 -4 11 1 7 11 -7 10 135 -1 153 -5 8 -4 11 1 7 11 -7 10
135 -1 153 -5 8 -4 11 2 7 12 -7 9 65 -3 84 -4 8 -3 9 4 5 13 -8 12 20 -1 41
-4 6 -3 15 3 18 8 5 7 12 -2 23 -10 12 -10 14 0 8 7 -4 12 -1 12 9 0 10 -5 13
-12 9 -10 -6 -10 -4 -2 7 6 8 10 30 8 49 -1 19 3 41 9 49 9 12 9 13 0 7 -9 -5
-13 2 -13 23 0 17 5 31 11 31 5 0 7 5 4 10 -4 6 -12 7 -18 3 -9 -5 -9 -3 0 8
10 12 10 18 0 29 -9 10 -9 11 1 6 7 -5 12 -1 12 9 0 10 -5 13 -12 9 -10 -6
-10 -5 -2 7 7 8 10 30 9 49 -2 19 2 41 8 49 9 11 9 13 1 8 -7 -4 -14 3 -17 19
-3 16 1 28 10 31 11 4 10 8 -4 20 -10 8 -12 12 -5 8 9 -5 11 0 8 19 -3 14 -8
31 -12 37 -4 7 -3 9 3 6 11 -7 9 85 -2 104 -5 7 -4 10 1 6 11 -7 10 135 -1
153 -5 8 -4 11 1 7 11 -7 10 135 -1 153 -5 8 -4 11 1 7 11 -7 10 135 -1 153
-5 8 -4 11 2 7 12 -7 9 65 -3 84 -4 8 -3 9 4 5 13 -8 12 20 -1 41 -4 6 -3 15
3 18 8 5 7 12 -2 23 -10 12 -10 14 0 8 7 -4 12 -1 12 9 0 10 -5 13 -12 9 -10
-6 -10 -4 -2 7 6 8 10 30 8 49 -1 19 3 41 9 49 9 12 9 13 0 7 -9 -5 -13 2 -13
23 0 17 5 31 11 31 5 0 7 5 4 10 -4 6 -12 7 -18 3 -9 -5 -9 -3 0 8 10 12 10
18 0 29 -9 10 -9 11 1 6 7 -5 12 -1 12 9 0 10 -5 13 -12 9 -10 -6 -10 -5 -2 7
7 8 10 30 9 49 -2 19 2 41 8 49 9 11 9 13 1 8 -7 -4 -14 3 -17 19 -3 16 1 28
10 31 11 4 10 8 -4 20 -10 8 -12 12 -5 8 9 -5 11 0 8 19 -3 14 -8 31 -12 37
-4 7 -3 9 3 6 11 -7 9 85 -2 104 -5 7 -4 10 1 6 11 -7 10 135 -1 153 -5 8 -4
11 2 7 12 -7 9 65 -3 84 -4 8 -3 9 4 5 13 -8 12 20 -1 41 -4 6 -3 15 3 18 8 5
7 12 -2 23 -10 12 -10 14 0 8 7 -4 12 -1 12 9 0 10 -5 13 -12 9 -10 -6 -10 -4
-2 7 6 8 10 30 8 49 -1 19 3 41 9 49 9 12 9 13 0 7 -9 -5 -13 2 -13 23 0 17 5
31 11 31 5 0 7 5 4 10 -4 6 -12 7 -18 3 -9 -5 -9 -3 0 8 10 12 10 18 0 29 -9
10 -9 11 1 6 7 -5 12 -1 12 9 0 10 -5 13 -12 9 -10 -6 -10 -5 -2 7 7 8 10 30
9 49 -2 19 2 41 8 49 9 11 9 13 1 8 -7 -4 -14 3 -17 19 -3 16 1 28 10 31 11 4
10 8 -4 20 -10 8 -12 12 -5 8 9 -5 11 0 8 19 -3 14 -8 31 -12 37 -4 8 -3 9 4
5 15 -9 15 -1 1 26 -7 12 -7 18 -1 14 7 -4 9 9 7 36 -2 24 2 49 8 57 9 11 9
13 0 8 -8 -5 -10 8 -8 48 2 30 6 59 10 65 3 5 1 10 -5 10 -6 0 -8 11 -6 25 3
13 0 27 -5 31 -5 3 -7 9 -4 14 3 5 1 12 -5 15 -8 5 -7 12 2 23 10 12 10 14 1
8 -12 -6 -18 5 -14 27 0 4 -4 7 -10 7 -6 0 -8 7 -5 15 3 9 -1 18 -9 21 -8 4
-13 10 -10 14 2 4 -7 20 -20 36 -14 16 -25 35 -25 42 0 7 -4 11 -8 8 -5 -3
-15 6 -22 19 -7 14 -20 25 -27 25 -7 0 -16 7 -19 15 -4 8 -10 13 -14 10 -4 -3
-11 2 -14 11 -3 8 -10 12 -16 9 -5 -3 -10 -1 -10 4 0 6 -6 11 -13 11 -7 0 -19
6 -25 13 -7 6 -22 13 -32 13 -37 3 -41 4 -36 12 3 5 -11 8 -30 7 -18 -1 -34 2
-34 7 0 5 -10 4 -21 -3 -17 -9 -20 -8 -14 2 6 9 3 11 -8 6 -10 -4 -17 -1 -17
6 0 8 -3 7 -9 -2 -8 -12 -14 -13 -37 -2 -23 10 -26 10 -16 -2 9 -11 8 -13 -9
-12 -11 1 -25 8 -30 16 -5 8 -9 9 -9 2z"/>
</g>
</svg>
