<?xml version="1.0" encoding="utf-8"?>
<!-- Generator: Adobe Illustrator 19.0.0, SVG Export Plug-In . SVG Version: 6.00 Build 0)  -->
<svg version="1.1" id="Layer_1" xmlns="http://www.w3.org/2000/svg" xmlns:xlink="http://www.w3.org/1999/xlink" x="0px" y="0px"
	 viewBox="-320 526.8 149.2 172.2" style="enable-background:new -320 526.8 149.2 172.2;" xml:space="preserve">
<style type="text/css">
	.st0{clip-path:url(#SVGID_2_);}
	.st1{clip-path:url(#SVGID_4_);fill:#FFFFFF;}
	.st2{clip-path:url(#SVGID_4_);}
</style>
<g>
	<g>
		<defs>
			<rect id="SVGID_1_" x="-317.4" y="540" width="144" height="145.7"/>
		</defs>
		<clipPath id="SVGID_2_">
			<use xlink:href="#SVGID_1_"  style="overflow:visible;"/>
		</clipPath>
		<g class="st0">
			<defs>
				<rect id="SVGID_3_" x="-615.4" y="53.1" width="723.7" height="1118.4"/>
			</defs>
			<clipPath id="SVGID_4_">
				<use xlink:href="#SVGID_3_"  style="overflow:visible;"/>
			</clipPath>
			<path class="st1" d="M-245.7,668c1.6,0,3.1,0.1,4.7,0c1.3-0.1,2.7-0.4,4-0.6c1.2-0.2,2.5-0.4,3.7-0.7c1.5-0.3,3.1-0.6,4.5-1.1
				c1.5-0.5,3-1.4,4.5-1.9c3.5-1.2,6.7-3.2,9.8-5.2c4.4-2.9,8.2-6.5,11.5-10.5c1.7-2,3.1-4.3,4.4-6.6c1.4-2.3,2.6-4.8,3.9-7.2
				c0.5-1.1,1-2.2,1.4-3.3c0.6-1.9,1-3.9,1.5-5.8c0.1-0.4,0.2-0.8,0.3-1.3c0.3-1.6,0.6-3.1,0.8-4.7c0.2-1.2,0.2-2.5,0.2-3.7
				c0-4.8,0.4-9.6-1.1-14.2c-0.1-0.3-0.2-0.6-0.2-0.9c0.1-2.2-1.2-3.9-1.6-6c-0.2-0.9-0.5-1.7-0.9-2.6c-0.9-1.8-1.9-3.6-2.8-5.4
				c-1.9-3.7-4.3-7-7-10c-0.5-0.6-0.6-1.1,0-1.7c2.3-2.3,4.6-4.6,6.9-6.9c5.3-5.3,10.7-10.7,16-16c2.3-2.3,4.6-4.6,6.8-7
				c0.8-0.8,0.7-2.1-0.1-2.9c-1.6-1.6-2.2-1.7-3.3-0.7c-1.7,1.5-3.3,3.1-4.9,4.7c-8,8-16,16-24,23.9c-2,2-2,2-4.1,0.2
				c-4.1-3.4-8.5-6.2-13.5-8.2c-1.1-0.5-2.3-0.8-3.5-1.2c-1.9-0.6-3.7-1.3-5.6-1.8c-1.4-0.4-2.9-0.5-4.4-0.8
				c-0.8-0.1-1.7-0.3-2.5-0.3c-7-0.3-14-0.2-20.8,2.1c-2.1,0.7-4.1,1.3-6.1,2.1c-3.6,1.4-6.8,3.4-10,5.5c-3.9,2.6-7.2,5.9-10.3,9.3
				c-3,3.3-5.3,7-7.4,10.9c-0.9,1.6-1.6,3.4-2.2,5.1c-0.7,1.7-1.4,3.3-1.8,5.1c-0.6,2.5-1.6,4.9-1.4,7.6c0,0.3-0.1,0.6-0.2,1
				c-0.2,3-0.6,6-0.6,8.9c0,2.1,0.5,4.2,0.8,6.3c0.4,2.4,1,4.8,1.5,7.1c0.3,1.1,0.5,2.2,1,3.2c1.3,2.8,2.7,5.6,4.1,8.4
				c1.6,3.1,3.6,5.8,6,8.3c0.9,1,1,1.5,0,2.5c-9.1,9.1-18.1,18.1-27.2,27.2c-1,1-1.9,2-2.7,3.1c-0.2,0.3-0.2,1-0.1,1.4
				c0.7,1.9,2.5,3,4.7,0.8c5.5-5.5,11-11.1,16.4-16.6c4.2-4.2,8.3-8.4,12.5-12.6c0.7-0.7,1.3-0.7,2.1,0c2,1.7,4,3.4,6.2,4.8
				c1.7,1.2,3.6,2.1,5.4,3c2.3,1.1,4.6,2,6.9,2.9c2.1,0.8,4.3,1.6,6.6,1.7c0.3,0,0.7,0,1,0.1C-252.3,668.3-249,668-245.7,668"/>
			<path class="st2" d="M-245.7,668c-3.3,0-6.6,0.3-9.7-1.1c-0.3-0.1-0.6-0.1-1-0.1c-2.3-0.1-4.5-0.9-6.6-1.7
				c-2.3-0.9-4.7-1.8-6.9-2.9c-1.9-0.9-3.7-1.8-5.4-3c-2.2-1.5-4.2-3.2-6.2-4.8c-0.8-0.6-1.4-0.7-2.1,0c-4.2,4.2-8.3,8.4-12.5,12.6
				c-5.5,5.5-11,11-16.4,16.6c-2.2,2.2-4,1.1-4.7-0.8c-0.2-0.4-0.2-1.1,0.1-1.4c0.8-1.1,1.8-2.1,2.7-3.1
				c9.1-9.1,18.1-18.2,27.2-27.2c1-1,0.9-1.5,0-2.5c-2.4-2.5-4.4-5.3-6-8.3c-1.4-2.8-2.8-5.6-4.1-8.4c-0.5-1-0.8-2.1-1-3.2
				c-0.5-2.4-1.1-4.7-1.5-7.1c-0.4-2.1-0.8-4.2-0.8-6.3c0-3,0.4-6,0.6-8.9c0-0.3,0.2-0.7,0.2-1c-0.3-2.7,0.8-5.1,1.4-7.6
				c0.4-1.7,1.1-3.4,1.8-5.1c0.7-1.7,1.4-3.5,2.2-5.1c2.1-3.9,4.4-7.6,7.4-10.9c3.1-3.4,6.4-6.7,10.3-9.3c3.2-2.1,6.4-4.1,10-5.5
				c2-0.8,4.1-1.4,6.1-2.1c6.8-2.2,13.7-2.4,20.8-2.1c0.8,0,1.7,0.2,2.5,0.3c1.5,0.2,3,0.4,4.4,0.8c1.9,0.5,3.7,1.2,5.6,1.8
				c1.2,0.4,2.3,0.8,3.5,1.2c5,2,9.4,4.8,13.5,8.2c2.2,1.8,2.2,1.8,4.1-0.2c8-8,16-16,24-23.9c1.6-1.6,3.2-3.2,4.9-4.7
				c1.1-1,1.7-0.8,3.3,0.7c0.8,0.8,0.9,2.1,0.1,2.9c-2.2,2.4-4.5,4.7-6.8,7c-5.3,5.4-10.7,10.7-16,16c-2.3,2.3-4.6,4.6-6.9,6.9
				c-0.6,0.6-0.6,1.1,0,1.7c2.7,3.1,5.1,6.4,7,10c0.9,1.8,1.9,3.6,2.8,5.4c0.4,0.8,0.7,1.7,0.9,2.6c0.4,2,1.7,3.8,1.6,6
				c0,0.3,0.1,0.6,0.2,0.9c1.5,4.6,1.1,9.4,1.1,14.2c0,1.2,0,2.5-0.2,3.7c-0.2,1.6-0.5,3.1-0.8,4.7c-0.1,0.4-0.2,0.8-0.3,1.3
				c-0.5,1.9-0.9,3.9-1.5,5.8c-0.3,1.1-0.8,2.2-1.4,3.3c-1.2,2.4-2.5,4.9-3.9,7.2c-1.4,2.3-2.8,4.6-4.4,6.6
				c-3.4,4-7.1,7.7-11.5,10.5c-3.1,2-6.3,4-9.8,5.2c-1.5,0.5-3,1.4-4.5,1.9c-1.5,0.5-3,0.8-4.5,1.1c-1.2,0.3-2.5,0.5-3.7,0.7
				c-1.3,0.2-2.7,0.5-4,0.6C-242.5,668-244.1,668-245.7,668 M-252.6,636.6L-252.6,636.6c0,4.8,0,9.5,0,14.3c0,1.5-0.8,2.4-2.4,2.4
				c-1.9,0.1-3-1.1-3-3c0-1.2,0.1-2.5,0.1-3.7c0-5.3,0-10.7,0-16c0-0.3-0.2-0.6-0.3-1c-0.3,0.1-0.7,0.2-0.9,0.4
				c-1.1,1.1-2.2,2.3-3.4,3.4c-3.2,3.2-6.4,6.5-9.7,9.7c-1.8,1.8-3.6,3.6-5.5,5.3c-1.1,1-1.2,1.3,0,2.2c2.8,2,5.5,4,8.3,5.8
				c1.6,1,3.5,1.8,5.3,2.5c1.6,0.6,3.2,1.1,4.8,1.6c2.5,0.6,4.9,1.4,7.4,1.6c4.3,0.3,8.6,0.1,12.9,0.1c0.5,0,1.1-0.1,1.6-0.3
				c2.2-0.7,4.6-0.4,6.6-1.7c0.1,0,0.1,0,0.2,0c1.6-0.6,3.2-1,4.8-1.7c1.8-0.8,3.6-1.7,5.2-2.8c2.6-1.7,5.3-3.4,7.7-5.4
				c4-3.5,7.4-7.5,10.2-12.1c2.3-3.8,3.9-8,5.2-12.2c0.7-2.1,1.4-4.4,1.2-6.7c0-0.2,0-0.4,0.1-0.5c0.9-5.8,0.4-11.5-0.8-17.3
				c-0.6-2.9-1.5-5.7-2.7-8.3c-0.3-0.7-0.7-1.5-1-2.2c-1.1-2.1-2.2-4.2-3.5-6.2c-1-1.6-2.3-2.9-3.4-4.4c-0.7-1-1.1-1-1.9-0.2
				c-3.5,3.5-6.9,7-10.4,10.5c-2.9,2.9-5.9,5.7-8.8,8.5c-0.2,0.2-0.5,0.6-0.4,0.8c0.1,0.3,0.5,0.5,0.8,0.5c0.6,0,1.3-0.1,2-0.1
				c6.2,0,12.3,0,18.5,0.1c1.2,0,2.5,1.2,2.6,2.4c0.2,1.9-0.9,3.1-3,3.1c-9,0-17.9,0-26.9,0c-2.5,0-3.8-1.4-3.8-3.9
				c0-3.8,0-7.6,0-11.4c0-5.2,0-10.4,0-15.6c0-1.7,1.1-3,2.4-3c2,0,3,0.9,3,3c0,3.8,0,7.7,0,11.5c0,2.8-0.2,5.6-0.2,8.4
				c0,0.3,0.2,0.9,0.4,1c0.3,0.1,0.9-0.1,1.1-0.3c1.7-1.7,3.4-3.5,5.1-5.3c4.6-4.6,9.2-9.2,13.9-13.9c0.7-0.7,0.7-1.2-0.1-1.8
				c-1.3-1-2.6-2.1-4-3.1c-2.8-2-5.8-3.7-8.9-4.9c-2.9-1.1-5.8-2.4-9-2.8c-1.2-0.1-2.3-0.8-3.5-0.8c-5.7,0.1-11.5-0.8-17.2,0.8
				c-2.5,0.7-5.1,1.3-7.6,2.3c-5.1,2-9.9,4.7-14.1,8.3c-4.5,3.9-8.4,8.4-11.2,13.7c-1.9,3.5-3.6,7.1-4.6,11.1
				c-0.4,1.8-0.8,3.5-1.1,5.3c-0.3,1.5-0.7,3-0.9,4.5c-0.7,4.9,0.7,9.6,1.2,14.3c0,0.1,0.1,0.2,0.1,0.3c0.6,1.9,1.2,3.9,1.9,5.8
				c0.5,1.5,1.1,2.9,1.7,4.3c1.7,3.6,3.8,7,6.3,10.1c1.7,2,1.7,2.2,3.5,0.3c6.1-6,12.2-12.1,18.3-18.2c0.2-0.2,0.4-0.7,0.3-0.8
				c-0.2-0.2-0.6-0.4-0.9-0.4c-0.8,0-1.6,0.2-2.4,0.3c-5.8,0-11.7-0.1-17.5,0c-1.5,0-2.4-0.8-3.2-1.8c-0.3-0.5-0.4-1.4-0.1-1.8
				c0.6-1,1.4-1.9,2.8-1.9c9.2,0,18.5,0,27.7,0c1.8,0,3,1.2,3,3C-252.6,627.2-252.6,631.9-252.6,636.6"/>
			<path class="st2" d="M-233.3,631.3c0-3.3,0-6.6,0-10c0-1.7,0.1-1.8,1.8-1.8c1.2,0,2.4,0,3.6,0c3.3,0,6.3,1.1,9.1,2.8
				c1.5,1,2.4,2.5,3.1,4c0.8,1.8,1.4,3.7,1.2,5.7c-0.4,3.6-1.8,6.7-5.1,8.7c-2.6,1.6-5.3,2.5-8.3,2.3c-1.4-0.1-2.8,0-4.2,0
				c-0.8,0-1.4-0.3-1.4-1.3C-233.4,638.4-233.4,634.8-233.3,631.3L-233.3,631.3z M-218.5,632.2c0.1-2.6-0.2-5-2.5-6.7
				c-1.1-0.8-2.1-1.6-3.6-1.7c-1,0-2-0.1-2.9-0.3c-1.2-0.2-1.8,0.2-1.8,1.4c0,2.1,0,4.2,0,6.2c0,2.2,0.1,4.4,0,6.6
				c0,1.4,0.5,2,1.9,1.8c0.9-0.1,1.9-0.4,2.8-0.6C-221,638.3-218.7,635.7-218.5,632.2"/>
			<path class="st2" d="M-257.3,603.5c-2,0.1-2.5-0.4-3.1-2.8c-0.5-2.1-0.5-2.1-2.6-2c-1.7,0-3.4,0-5.1,0c-0.9,0-1.3,0.3-1.5,1.2
				c-0.3,1.1-0.8,2.2-1.2,3.3c-0.1,0.2-0.3,0.4-0.5,0.4c-1.1,0-2.2,0.1-3.3-0.1c-0.7-0.1-0.5-0.8-0.2-1.3c0.4-0.8,0.7-1.6,1.1-2.5
				c0.4-1,0.7-2,1.1-2.9c0.6-1.5,1.1-2.9,1.7-4.3c0-0.1,0.1-0.2,0.1-0.3c0.9-2.6,1.8-5.1,2.7-7.7c0.3-1,0.7-1.9,1.1-2.8
				c0.1-0.2,0.4-0.4,0.7-0.4c0.8,0,1.5-0.1,2.3,0.1c0.4,0.1,0.9,0.5,1,0.8c1.3,3.4,2.5,6.8,3.7,10.2c0.6,1.5,1.2,3,1.8,4.6
				c0.7,2,1.4,4,2,6c0.1,0.2-0.3,0.6-0.5,0.7C-256.4,603.6-256.9,603.5-257.3,603.5 M-264,594.7c1.3,0.1,1.7-0.7,1.1-2
				c-0.4-0.9-0.7-1.9-1.1-2.8c-0.1-0.4-0.2-1.1-0.3-1.4c-0.3-1.8-0.7-1.8-1.1-1.6c-0.2,0.5-0.7,1.9-0.8,2.4
				c-0.2,0.7-0.4,1.4-0.6,2.1c-0.2,0.7-0.4,1.3-0.7,2c-0.3,0.9,0.1,1.4,1,1.4C-265.6,594.7-264.8,594.7-264,594.7"/>
		</g>
	</g>
</g>
</svg>
