<?xml version="1.0" encoding="utf-8"?>
<!-- Generator: Adobe Illustrator 19.0.0, SVG Export Plug-In . SVG Version: 6.00 Build 0)  -->
<svg version="1.1" id="Layer_1" xmlns="http://www.w3.org/2000/svg" xmlns:xlink="http://www.w3.org/1999/xlink" x="0px" y="0px"
	 viewBox="0 0 80 80" style="enable-background:new 0 0 80 80;" xml:space="preserve">
<path id="XMLID_4_" d="M70.9,25.3c-1.1-1.3-3.1-1.4-4.3-0.2L40.1,48.7L13.4,24.9c-1.3-1.1-3.2-1-4.3,0.2s-1,3.2,0.2,4.3L38,55.1l0,0
	l0,0c0,0,0,0,0,0c0.1,0.1,0.3,0.2,0.4,0.3c0,0,0,0,0.1,0c0.1,0.1,0.3,0.2,0.4,0.2c0,0,0.1,0,0.1,0c0.1,0.1,0.3,0.1,0.5,0.1
	c0,0,0.1,0,0.1,0c0.2,0,0.3,0,0.5,0c0,0,0,0,0,0c0,0,0,0,0,0s0,0,0,0c0,0,0,0,0,0c0.2,0,0.3,0,0.5,0c0,0,0.1,0,0.1,0
	c0.2,0,0.3-0.1,0.5-0.1c0,0,0.1,0,0.1,0c0.2-0.1,0.3-0.1,0.4-0.2c0,0,0,0,0.1,0c0.1-0.1,0.3-0.2,0.4-0.3c0,0,0,0,0,0l0,0l0,0
	l28.5-25.5C71.9,28.5,72,26.5,70.9,25.3z"/>
</svg>
