<?xml version="1.0" encoding="utf-8"?>
<!-- Generator: Adobe Illustrator 19.0.0, SVG Export Plug-In . SVG Version: 6.00 Build 0)  -->
<svg version="1.1" id="Layer_1" xmlns="http://www.w3.org/2000/svg" xmlns:xlink="http://www.w3.org/1999/xlink" x="0px" y="0px"
	 viewBox="0 0 100 100" style="enable-background:new 0 0 100 100;" xml:space="preserve">
<g id="XMLID_1_">
	<path id="XMLID_1385_" d="M61.1,67c-19,13.9-40.5,6.8-50.4-6.5c-11-14.7-9.5-34.6,3.7-47.3C27.1,0.9,47.6,0,61.4,11.3
		C75.1,22.4,79.9,43.6,67,61.1c1.4,1.7,2.5,3.3,5.4,2.7c1.6-0.4,4.1,0.6,5.4,1.8c5.7,5.3,11.1,10.8,16.6,16.4c3,3,2.9,6.7,0,9.7
		c-1.1,1.1-2.1,2.3-3.3,3.3c-2.6,2.2-6.3,2.3-8.7-0.1c-5.8-5.7-11.6-11.4-17.2-17.3c-1.1-1.2-1.9-3.4-1.6-4.9
		C64.3,69.8,62.9,68.6,61.1,67z M68,39.1C68,23,55,9.9,39,9.9C23.1,9.8,9.9,23,9.9,39c0,15.9,13.1,29,28.9,29C55,68,68,55.1,68,39.1
		z"/>
	<path id="XMLID_1234_" d="M20.6,30.6c1.4,16.5,9.8,24.4,27.2,26c-4.3,4.4-15.9,4.9-23.2-1.4C17.3,49,15.6,37.6,20.6,30.6z"/>
</g>
</svg>
